<svg xmlns="http://www.w3.org/2000/svg" xmlns:xlink="http://www.w3.org/1999/xlink" viewBox="0 0 58.67 149.6"><defs><style>.cls-1{fill:url(#linear-gradient);}.cls-2{fill:url(#linear-gradient-2);}.cls-3{fill:url(#linear-gradient-3);}.cls-4{fill:url(#linear-gradient-4);}.cls-5{fill:url(#linear-gradient-5);}.cls-6{fill:url(#linear-gradient-6);}</style><linearGradient id="linear-gradient" x1="-192.36" y1="146.23" x2="-191.33" y2="146.23" gradientTransform="matrix(42.34, 0, 0, -42.34, 8152.73, 6281.49)" gradientUnits="userSpaceOnUse"><stop offset="0" stop-color="#231f20"/><stop offset="0.13" stop-color="#231f20"/><stop offset="0.15" stop-color="#242021"/><stop offset="1" stop-color="#48484a"/></linearGradient><linearGradient id="linear-gradient-2" x1="-190.66" y1="146.01" x2="-189.62" y2="146.01" gradientTransform="matrix(18.24, 0, 0, -18.24, 3498.83, 2672.91)" xlink:href="#linear-gradient"/><linearGradient id="linear-gradient-3" x1="-192.67" y1="146.27" x2="-191.64" y2="146.27" gradientTransform="matrix(55.48, 0, 0, -55.48, 10689.42, 8261.68)" xlink:href="#linear-gradient"/><linearGradient id="linear-gradient-4" x1="-192.69" y1="146.28" x2="-191.65" y2="146.28" gradientTransform="matrix(56.72, 0, 0, -56.72, 10929.25, 8428.09)" xlink:href="#linear-gradient"/><linearGradient id="linear-gradient-5" x1="-192.54" y1="146.25" x2="-191.5" y2="146.25" gradientTransform="matrix(48.91, 0, 0, -48.91, 9421.74, 7268.51)" xlink:href="#linear-gradient"/><linearGradient id="linear-gradient-6" x1="-192.51" y1="146.31" x2="-191.47" y2="146.31" gradientTransform="matrix(47.65, 0, 0, -47.65, 9177.39, 7014.89)" xlink:href="#linear-gradient"/></defs><g id="Layer_2" data-name="Layer 2"><g id="Vector_Graphics" data-name="Vector Graphics"><path class="cls-1" d="M51.8,112.21C46.08,101.73,40.63,92.5,39.09,68.5H20.66C19.11,92.5,13.8,101.42,8,112.21Z"/><path class="cls-2" d="M30.19,18.87a9.44,9.44,0,1,0-9.44-9.44A9.43,9.43,0,0,0,30.19,18.87Z"/><path class="cls-3" d="M58,149.6a15.17,15.17,0,0,0-.55-3.35A7.45,7.45,0,0,0,55.59,144H3.09a6.79,6.79,0,0,0-1.94,2.21,11.67,11.67,0,0,0-.5,3.42Z"/><path class="cls-4" d="M55.26,143.18a15.57,15.57,0,0,0,3.37-11c-.29-4.6-2.83-9.64-5.46-13.51H6c-2.28,3.52-5.66,8.09-6,12.63a17.66,17.66,0,0,0,3.37,11.89Z"/><path class="cls-5" d="M55,115.31a2.81,2.81,0,0,0-2.63-2.15H7.2a2.81,2.81,0,0,0-2.63,2.15,2.24,2.24,0,0,0,1.69,2.56H53.35A2.24,2.24,0,0,0,55,115.31Z"/><path class="cls-6" d="M53.51,22.21a4.8,4.8,0,0,0-5.17-2c-1.06.29-3.11,2-5.52,2a10.89,10.89,0,0,1-5.8-2c-.23-.19-.46-.37-.68-.53l-.05,0,0,0a2.15,2.15,0,0,0-.35.33c-1.73,1.21-3.82,2.42-6,2.42-2.42,0-4.64-1.42-6.46-2.75a11.63,11.63,0,0,1-6.58,2.52c-2.41,0-4.47-1.71-5.53-2a4.8,4.8,0,0,0-5.17,2c-2.28,3.25.06,6,1.77,7.17C13.21,33.12,20,45.21,19.13,58.72H13.69a5.32,5.32,0,0,0-3.81,4.62c-.26,2.72,2.73,4.42,3.15,4.46.25,0,11.19,0,15.79,0s16.85,0,17.1,0c.42,0,3.25-1.51,3-4.22a5.67,5.67,0,0,0-3.63-4.86H40.49v-.1c-.82-13.47,5.94-25.51,11.25-29.24C53.46,28.17,55.79,25.46,53.51,22.21Z"/></g></g></svg>