<svg xmlns="http://www.w3.org/2000/svg" xmlns:xlink="http://www.w3.org/1999/xlink" viewBox="0 0 55.59 149.6"><defs><style>.cls-1{fill:url(#linear-gradient);}.cls-2{fill:url(#linear-gradient-2);}.cls-3{fill:url(#linear-gradient-3);}.cls-4{fill:url(#linear-gradient-4);}.cls-5{fill:url(#linear-gradient-5);}.cls-6{fill:url(#linear-gradient-6);}</style><linearGradient id="linear-gradient" x1="-288.47" y1="146.31" x2="-287.34" y2="146.31" gradientTransform="matrix(35.5, 0, 0, -35.5, 10249.44, 5281.99)" gradientUnits="userSpaceOnUse"><stop offset="0" stop-color="#231f20"/><stop offset="0.13" stop-color="#231f20"/><stop offset="0.15" stop-color="#242021"/><stop offset="1" stop-color="#48484a"/></linearGradient><linearGradient id="linear-gradient-2" x1="-287.83" y1="146.52" x2="-286.71" y2="146.52" gradientTransform="matrix(28.02, 0, 0, -28.02, 8077.83, 4131.79)" xlink:href="#linear-gradient"/><linearGradient id="linear-gradient-3" x1="-289.05" y1="146.22" x2="-287.92" y2="146.22" gradientTransform="matrix(46.88, 0, 0, -46.88, 13553.19, 7001.53)" xlink:href="#linear-gradient"/><linearGradient id="linear-gradient-4" x1="-289.13" y1="146.28" x2="-288.01" y2="146.28" gradientTransform="matrix(49.28, 0, 0, -49.28, 14248.59, 7335.27)" xlink:href="#linear-gradient"/><linearGradient id="linear-gradient-5" x1="-288.84" y1="146.3" x2="-287.71" y2="146.3" gradientTransform="matrix(42, 0, 0, -42, 12134.06, 6251.46)" xlink:href="#linear-gradient"/><linearGradient id="linear-gradient-6" x1="-287.98" y1="146.37" x2="-286.85" y2="146.37" gradientTransform="matrix(29.5, 0, 0, -29.5, 8508.49, 4380.05)" xlink:href="#linear-gradient"/></defs><g id="Layer_2" data-name="Layer 2"><g id="Vector_Graphics" data-name="Vector Graphics"><path class="cls-1" d="M8.35,103.83c4.45-9,10.27-21.91,10.71-32.28H37.49c.44,10.37,6.7,23.54,10.91,32.28Z"/><path class="cls-2" d="M38.94,52.56a2.89,2.89,0,0,0,0-5.77c4.56-4.27,6.19-12.69,4.27-17.09-3.09-7.08-6.46-11-12.78-20.43A4.93,4.93,0,0,0,33,4.69,4.54,4.54,0,0,0,28.21,0c-2.7,0-4.28,1.84-4.28,4.69,0,2,.62,3.75,2.26,4.58-1.73,2.57-4.43,6.45-5.7,8.37l4.43,9.72s.82,1.52-.63,1.56c-1.28,0-1.56-1.39-1.56-1.39l-3.51-7.76C17.2,23,14.77,26,13.13,29.7c-1.92,4.4,0,12.82,4.54,17.09a2.89,2.89,0,0,0,0,5.77Z"/><path class="cls-3" d="M54.13,149.6a24.16,24.16,0,0,0-.51-4.12,9.16,9.16,0,0,0-1.74-2.82H3.5a8,8,0,0,0-1.79,2.72,18.49,18.49,0,0,0-.46,4.22Z"/><path class="cls-4" d="M51.58,141.7c2.13-3.65,4.24-8.63,4-14.14-.27-5.67-3.5-11.29-5.92-16.06H6.22c-2.1,4.34-5.88,10-6.19,15.55A27.32,27.32,0,0,0,3.8,141.7Z"/><path class="cls-5" d="M51.82,107.38A3.17,3.17,0,0,0,49,104.73H7.29a3.16,3.16,0,0,0-2.75,2.71,2.88,2.88,0,0,0,1.88,3.1H49.81A3,3,0,0,0,51.82,107.38Z"/><path class="cls-6" d="M45.31,66.88a4.8,4.8,0,0,0-3.1-4.08h-3.3V53.42H17.63V62.8H15.3a4.49,4.49,0,0,0-3.24,3.89c-.23,2.28,2.32,3.71,2.68,3.75.21,0,9.54,0,13.45,0s14.37,0,14.58,0S45.53,69.17,45.31,66.88Z"/></g></g></svg>