<svg xmlns="http://www.w3.org/2000/svg" xmlns:xlink="http://www.w3.org/1999/xlink" viewBox="0 0 79.99 149.6"><defs><style>.cls-1{fill:url(#linear-gradient);}.cls-2{fill:url(#linear-gradient-2);}.cls-3{fill:url(#linear-gradient-3);}.cls-4{fill:url(#linear-gradient-4);}.cls-5{fill:url(#linear-gradient-5);}.cls-6{fill:url(#linear-gradient-6);}</style><linearGradient id="linear-gradient" x1="-382.72" y1="146.88" x2="-381.39" y2="146.88" gradientTransform="matrix(53.74, 0, 0, -53.74, 20572.05, 7907.3)" gradientUnits="userSpaceOnUse"><stop offset="0" stop-color="#231f20"/><stop offset="0.13" stop-color="#231f20"/><stop offset="0.15" stop-color="#242021"/><stop offset="1" stop-color="#48484a"/></linearGradient><linearGradient id="linear-gradient-2" x1="-381.9" y1="146.69" x2="-380.57" y2="146.69" gradientTransform="matrix(39.62, 0, 0, -39.62, 15143.3, 5876.31)" xlink:href="#linear-gradient"/><linearGradient id="linear-gradient-3" x1="-382.93" y1="146.3" x2="-381.6" y2="146.3" gradientTransform="matrix(59.29, 0, 0, -59.29, 22703.86, 8818.95)" xlink:href="#linear-gradient"/><linearGradient id="linear-gradient-4" x1="-382.96" y1="146.41" x2="-381.64" y2="146.41" gradientTransform="matrix(60.35, 0, 0, -60.35, 23112.86, 8956.51)" xlink:href="#linear-gradient"/><linearGradient id="linear-gradient-5" x1="-382.53" y1="146.51" x2="-381.21" y2="146.51" gradientTransform="matrix(49.76, 0, 0, -49.76, 19040.24, 7386.03)" xlink:href="#linear-gradient"/><linearGradient id="linear-gradient-6" x1="-382.01" y1="146.87" x2="-380.69" y2="146.87" gradientTransform="matrix(41.15, 0, 0, -41.15, 15734.65, 6077.74)" xlink:href="#linear-gradient"/></defs><g id="Layer_2" data-name="Layer 2"><g id="Vector_Graphics" data-name="Vector Graphics"><path class="cls-1" d="M62.37,27.94a44,44,0,0,0,9.07-11.82C74.7,9.46,75.5,0,75.5,0H57.75L59,13.1H46.58L47.84,0H32l1.26,13.1H20.77L22,0H4.28A49.54,49.54,0,0,0,8.34,16.12c3.7,8.2,9.07,11.82,9.07,11.82Z"/><polygon class="cls-2" points="13.75 91.32 18.77 38.72 61.23 38.72 66.25 91.32 13.75 91.32"/><path class="cls-3" d="M79.22,149.6s-.59-2.93-1.16-4.61-3-4.19-3-4.19H4.87A10.51,10.51,0,0,0,2,144.38a43.21,43.21,0,0,0-1.3,5.22Z"/><path class="cls-4" d="M74.59,139.58c3.09-4.63,5.74-10.7,5.37-17.68-.39-7.19-5.95-14.59-9.47-20.64H11C7.94,106.76.49,114.8.05,121.9s2.17,13,5.26,17.68Z"/><path class="cls-5" d="M73.22,96a4.29,4.29,0,0,0-4-3.35h-58A4.28,4.28,0,0,0,7.41,96.1C6.92,98.3,9.26,100,10,100c.46,0,20.56,0,29,0s31,0,31.41,0C71.22,100,73.72,98.22,73.22,96Z"/><path class="cls-6" d="M67.34,33a4.44,4.44,0,0,0-4-3.81H16.71a4.45,4.45,0,0,0-3.83,3.9c-.49,2.5,3.43,4.6,4.2,4.64.46,0,13.93-.16,22.37-.16H63.13C63.91,37.56,67.83,35.54,67.34,33Z"/></g></g></svg>