<svg xmlns="http://www.w3.org/2000/svg" xmlns:xlink="http://www.w3.org/1999/xlink" viewBox="0 0 68.71 149.6"><defs><style>.cls-1{fill:url(#linear-gradient);}.cls-2{fill:url(#linear-gradient-2);}.cls-3{fill:url(#linear-gradient-3);}.cls-4{fill:url(#linear-gradient-4);}</style><linearGradient id="linear-gradient" x1="4.2" y1="146.25" x2="5.64" y2="146.25" gradientTransform="matrix(46.52, 0, 0, -46.52, -195.08, 6949.13)" gradientUnits="userSpaceOnUse"><stop offset="0" stop-color="#231f20"/><stop offset="0.13" stop-color="#231f20"/><stop offset="0.15" stop-color="#242021"/><stop offset="1" stop-color="#48484a"/></linearGradient><linearGradient id="linear-gradient-2" x1="4.2" y1="146.39" x2="5.65" y2="146.39" gradientTransform="matrix(47.66, 0, 0, -47.66, -200.78, 7101.36)" xlink:href="#linear-gradient"/><linearGradient id="linear-gradient-3" x1="4.19" y1="146.51" x2="5.63" y2="146.51" gradientTransform="matrix(40.5, 0, 0, -40.5, -164, 6038.56)" xlink:href="#linear-gradient"/><linearGradient id="linear-gradient-4" x1="4.16" y1="146.98" x2="5.61" y2="146.98" gradientTransform="matrix(36.23, 0, 0, -36.23, -143.09, 5375.01)" xlink:href="#linear-gradient"/></defs><g id="Layer_2" data-name="Layer 2"><g id="Vector_Graphics" data-name="Vector Graphics"><path class="cls-1" d="M67.89,149.6a20.08,20.08,0,0,0-.71-4.38,9.83,9.83,0,0,0-2.4-3H4a8.88,8.88,0,0,0-2.49,2.89,15.47,15.47,0,0,0-.63,4.49Z"/><path class="cls-2" d="M64.35,141.19a20.81,20.81,0,0,0,4.31-14.42c-.37-6-3.62-12.63-7-17.7h-54C4.8,113.68.48,119.67.06,125.62a23.5,23.5,0,0,0,4.31,15.57Z"/><path class="cls-3" d="M64.07,104.68a3.61,3.61,0,0,0-3.36-2.81H9.2a3.61,3.61,0,0,0-3.36,2.81A2.94,2.94,0,0,0,8,108H61.91A2.94,2.94,0,0,0,64.07,104.68Z"/><path class="cls-4" d="M54.91,54.48c.54-.07,5.84-2.83,5.5-7.31-.39-5.59-5.82-7.63-6.32-7.63H43.16v-.16A20.76,20.76,0,0,0,34.28,0a20.75,20.75,0,0,0-8.86,39.38l0,.16H14.31a8.75,8.75,0,0,0-6.1,7.63c-.33,4.48,4.75,7.24,5.28,7.31H24.14C22.11,67,15.83,88,10.47,100.74H60C54.08,89.67,46.46,67,44.43,54.49Z"/></g></g></svg>