<svg xmlns="http://www.w3.org/2000/svg" xmlns:xlink="http://www.w3.org/1999/xlink" viewBox="0 0 52.54 149.6"><defs><style>.cls-1{fill:url(#linear-gradient);}.cls-2{fill:url(#linear-gradient-2);}.cls-3{fill:url(#linear-gradient-3);}.cls-4{fill:url(#linear-gradient-4);}.cls-5{fill-rule:evenodd;fill:url(#linear-gradient-5);}.cls-6{fill:url(#linear-gradient-6);}</style><linearGradient id="linear-gradient" x1="-101.96" y1="146.26" x2="-101" y2="146.26" gradientTransform="matrix(53.66, 0, 0, -53.66, 5471.19, 7995.31)" gradientUnits="userSpaceOnUse"><stop offset="0" stop-color="#231f20"/><stop offset="0.13" stop-color="#231f20"/><stop offset="0.15" stop-color="#242021"/><stop offset="1" stop-color="#48484a"/></linearGradient><linearGradient id="linear-gradient-2" x1="-101.97" y1="146.24" x2="-101.01" y2="146.24" gradientTransform="matrix(54.9, 0, 0, -54.9, 5598.54, 8160.84)" xlink:href="#linear-gradient"/><linearGradient id="linear-gradient-3" x1="-101.86" y1="146.19" x2="-100.91" y2="146.19" gradientTransform="matrix(47.09, 0, 0, -47.09, 4800.89, 7001.63)" xlink:href="#linear-gradient"/><linearGradient id="linear-gradient-4" x1="-101.75" y1="146.12" x2="-100.8" y2="146.12" gradientTransform="matrix(41.07, 0, 0, -41.07, 4186.11, 6095.75)" xlink:href="#linear-gradient"/><linearGradient id="linear-gradient-5" x1="-100.77" y1="145.46" x2="-99.81" y2="145.46" gradientTransform="matrix(19.01, 0, 0, -19.01, 1933.26, 2774.79)" xlink:href="#linear-gradient"/><linearGradient id="linear-gradient-6" x1="-101.83" y1="146.11" x2="-100.88" y2="146.11" gradientTransform="matrix(45.17, 0, 0, -45.17, 4604.62, 6646.46)" xlink:href="#linear-gradient"/></defs><g id="Layer_2" data-name="Layer 2"><g id="Vector_Graphics" data-name="Vector Graphics"><path class="cls-1" d="M52,149.6a14.66,14.66,0,0,0-.52-3.16,7.1,7.1,0,0,0-1.74-2.16H2.86a6.33,6.33,0,0,0-1.8,2.08A11.44,11.44,0,0,0,.6,149.6Z"/><path class="cls-2" d="M49.39,143.54a15,15,0,0,0,3.12-10.41c-.27-4.35-2.62-9.11-5.06-12.77H5.59C3.48,123.68.35,128,0,132.3a17,17,0,0,0,3.12,11.24Z"/><path class="cls-3" d="M49.18,117.19a2.6,2.6,0,0,0-2.43-2H6.67a2.61,2.61,0,0,0-2.44,2,2.12,2.12,0,0,0,1.56,2.42H47.62A2.11,2.11,0,0,0,49.18,117.19Z"/><path class="cls-4" d="M46.31,114.5c-5.22-11.93-10.2-18.5-11.61-41H17.85C16.44,96,12.23,102.57,7,114.5Z"/><path class="cls-5" d="M33.7,5.38c-2,2-4.32,2.9-5.23,2S28.42,4,30.4,2a8.39,8.39,0,0,1,.83-.76,8.91,8.91,0,0,0-9.1,0,10.46,10.46,0,0,1,.94.85c2,2,2.84,4.42,1.93,5.35s-3.25,0-5.23-2a11.5,11.5,0,0,1-.87-1A9.53,9.53,0,0,0,17.58,9.3,9.37,9.37,0,0,0,18.8,14c.25-.31.52-.62.81-.92,2-2,4.32-2.91,5.23-2s.05,3.33-1.93,5.35a12.23,12.23,0,0,1-.94.85,8.94,8.94,0,0,0,9.35,0,9.15,9.15,0,0,1-1-.9c-2-2-2.84-4.41-1.93-5.34s3.25,0,5.23,2a9.12,9.12,0,0,1,.87,1,9.43,9.43,0,0,0,0-9.54C34.24,4.79,34,5.09,33.7,5.38Z"/><path class="cls-6" d="M47.9,31.7a7.77,7.77,0,0,0-7.69-7.85H35.85V21.92a2.23,2.23,0,0,0-2.2-2.25H18.91a2.23,2.23,0,0,0-2.2,2.25v1.93H12.35A7.77,7.77,0,0,0,4.66,31.7,10.63,10.63,0,0,0,6.42,37C7.71,39.09,16,51.44,16,51.44l-.76,13.39H12.9a4.56,4.56,0,0,0-3.23,4c-.23,2.36,2.31,3.83,2.67,3.87H40.27c.36,0,2.76-1.31,2.53-3.66a4.89,4.89,0,0,0-3.08-4.21H37.34L36.69,51.1s8.16-12,9.44-14.08A10.54,10.54,0,0,0,47.9,31.7Z"/></g></g></svg>