<svg xmlns="http://www.w3.org/2000/svg" xmlns:xlink="http://www.w3.org/1999/xlink" viewBox="0 0 76.24 149.6"><defs><style>.cls-1{fill:url(#linear-gradient);}.cls-2{fill:url(#linear-gradient-2);}.cls-3{fill:url(#linear-gradient-3);}.cls-4{fill:url(#linear-gradient-4);}</style><linearGradient id="linear-gradient" x1="-500.62" y1="146.65" x2="-499.34" y2="146.65" gradientTransform="matrix(59.51, 0, 0, -59.51, 29789.71, 8777.51)" gradientUnits="userSpaceOnUse"><stop offset="0" stop-color="#231f20"/><stop offset="0.13" stop-color="#231f20"/><stop offset="0.15" stop-color="#242021"/><stop offset="1" stop-color="#48484a"/></linearGradient><linearGradient id="linear-gradient-2" x1="-500.04" y1="146.24" x2="-498.76" y2="146.24" gradientTransform="matrix(49.07, 0, 0, -49.07, 24537.23, 7321.76)" xlink:href="#linear-gradient"/><linearGradient id="linear-gradient-3" x1="-500.12" y1="146.33" x2="-498.84" y2="146.33" gradientTransform="matrix(50.27, 0, 0, -50.27, 25140.68, 7481.58)" xlink:href="#linear-gradient"/><linearGradient id="linear-gradient-4" x1="-499.53" y1="146.41" x2="-498.25" y2="146.41" gradientTransform="matrix(42.72, 0, 0, -42.72, 21345.15, 6360.15)" xlink:href="#linear-gradient"/></defs><g id="Layer_2" data-name="Layer 2"><g id="Vector_Graphics" data-name="Vector Graphics"><path class="cls-1" d="M8.88,101.69H56.69L59.4,80.08c-11.19-9-23.08-25.85-22.65-41.79.07-2.8,2.47-2.48,2.55-.47.14,3.88,2.37,10.62,10.61,8.37,4.53-1.25,9.09-1.61,12.46-.32s3.92,2.79,6.9,4.3a28.67,28.67,0,0,0,5.24-7.12c2-3.94,3.29-6.74-2.19-10.43-4.81-3.26-11.39-11-13.62-16.53a14.64,14.64,0,0,0-6.28-7.63C53.12,6.14,55.32,4,50.65,0a26.38,26.38,0,0,0-4.49,4.05C38.42,1.58,26,3.2,17.29,9.69-7,27.84-1.53,87.62,8.88,101.69Z"/><path class="cls-2" d="M63.61,149.6a21.13,21.13,0,0,0-.67-4.29,9.51,9.51,0,0,0-2.26-2.93h-57a8.59,8.59,0,0,0-2.32,2.83,15.91,15.91,0,0,0-.6,4.39Z"/><path class="cls-3" d="M60.28,141.28a21,21,0,0,0,4-14.12c-.35-5.9-3.39-12.36-6.54-17.33H7.23C4.5,114.35.45,120.21.06,126a23.77,23.77,0,0,0,4,15.25Z"/><path class="cls-4" d="M60,105.63a3.4,3.4,0,0,0-3.15-2.75H8.62a3.41,3.41,0,0,0-3.15,2.75,2.88,2.88,0,0,0,2,3.29H58A2.87,2.87,0,0,0,60,105.63Z"/></g></g></svg>