<svg xmlns="http://www.w3.org/2000/svg" xmlns:xlink="http://www.w3.org/1999/xlink" viewBox="0 0 76.24 149.6"><defs><style>.cls-1{fill:url(#linear-gradient);}.cls-2{fill:#a6a8ab;}.cls-3{fill:url(#linear-gradient-2);}.cls-4{fill:url(#linear-gradient-3);}.cls-5{fill:url(#linear-gradient-4);}</style><linearGradient id="linear-gradient" x1="-500.62" y1="358.97" x2="-499.34" y2="358.97" gradientTransform="matrix(59.29, 0, 0, -59.29, 29680.29, 21333.03)" gradientUnits="userSpaceOnUse"><stop offset="0" stop-color="#cbccce"/><stop offset="0.66" stop-color="#ebecec"/><stop offset="1" stop-color="#fff"/></linearGradient><linearGradient id="linear-gradient-2" x1="-500.04" y1="358.73" x2="-498.76" y2="358.73" gradientTransform="matrix(48.81, 0, 0, -48.81, 24407.17, 17655.26)" xlink:href="#linear-gradient"/><linearGradient id="linear-gradient-3" x1="-500.12" y1="358.8" x2="-498.84" y2="358.8" gradientTransform="matrix(50.02, 0, 0, -50.02, 25015.84, 18072.26)" xlink:href="#linear-gradient"/><linearGradient id="linear-gradient-4" x1="-499.53" y1="359.05" x2="-498.25" y2="359.05" gradientTransform="matrix(42.47, 0, 0, -42.47, 21220.13, 15354.56)" xlink:href="#linear-gradient"/></defs><g id="Layer_2" data-name="Layer 2"><g id="Vector_Graphics" data-name="Vector Graphics"><path class="cls-1" d="M9,101.53C-1.5,87.24-6.74,27.83,17.39,9.82a36.17,36.17,0,0,1,21-6.71A26.2,26.2,0,0,1,46.12,4.2l.09,0,.07-.08A26.26,26.26,0,0,1,50.65.2c3.67,3.21,2.86,5.14,2.07,7a11,11,0,0,0-.46,1.2l0,.12.11.06c1.21.64,4.22,2.64,6.21,7.55,2.15,5.3,8.67,13.21,13.68,16.6,5.48,3.7,4.08,6.44,2.14,10.23a29.17,29.17,0,0,1-5.13,7,17.69,17.69,0,0,1-2.88-1.92,13.62,13.62,0,0,0-3.93-2.34,14.18,14.18,0,0,0-5-.82A28.74,28.74,0,0,0,49.87,46a11.8,11.8,0,0,1-3,.44c-6.87,0-7.35-7.77-7.38-8.65a1.59,1.59,0,0,0-1.41-1.73c-.65,0-1.42.57-1.46,2.19C36.17,54.18,48,71.12,59.23,80.15l-2.68,21.38Z"/><path class="cls-2" d="M50.64.41c3.47,3.07,2.72,4.86,1.93,6.75-.16.39-.33.8-.46,1.21L52,8.62l.23.13c1.19.62,4.17,2.59,6.13,7.46,2.16,5.33,8.71,13.27,13.74,16.67,5.37,3.62,4,6.31,2.08,10a28.58,28.58,0,0,1-5,6.88,17,17,0,0,1-2.75-1.85,13.91,13.91,0,0,0-4-2.36,14.2,14.2,0,0,0-5.08-.83,29,29,0,0,0-7.57,1.13,11.51,11.51,0,0,1-3,.44c-6.71,0-7.19-7.63-7.22-8.5a1.75,1.75,0,0,0-1.57-1.88c-.72,0-1.57.61-1.62,2.35C36,54.2,47.84,71.15,59.06,80.22l-2.65,21.15H9.05C-1.36,87-6.54,27.88,17.49,10A36,36,0,0,1,38.34,3.27a25.8,25.8,0,0,1,7.72,1.08l.21.07.14-.16A25,25,0,0,1,50.64.41m0-.41a26.06,26.06,0,0,0-4.5,4.05A25.87,25.87,0,0,0,38.34,3,36.32,36.32,0,0,0,17.29,9.69C-7,27.84-1.53,87.62,8.89,101.69h47.8L59.4,80.08c-11.18-9-23.07-25.85-22.65-41.79,0-1.42.67-2,1.3-2s1.21.58,1.25,1.57c.12,3.34,1.8,8.81,7.54,8.81a11.62,11.62,0,0,0,3.07-.45,29,29,0,0,1,7.49-1.12,14,14,0,0,1,5,.81c3.28,1.26,3.92,2.79,6.9,4.3a28.67,28.67,0,0,0,5.24-7.12c2-3.94,3.29-6.74-2.19-10.43-4.82-3.26-11.39-11-13.62-16.53a14.64,14.64,0,0,0-6.28-7.63C53.12,6.14,55.32,4,50.66,0Z"/><path class="cls-3" d="M.94,149.44a15,15,0,0,1,.58-4.18A8.29,8.29,0,0,1,3.8,142.5l56.88,0a10.5,10.5,0,0,1,2.11,2.82,19.13,19.13,0,0,1,.64,4.08Z"/><path class="cls-2" d="M60.56,142.7a8.75,8.75,0,0,1,2.08,2.71,18,18,0,0,1,.62,3.87H1.1a14.09,14.09,0,0,1,.57-4,7.76,7.76,0,0,1,2.14-2.62H60.56m.12-.32H3.7a8.61,8.61,0,0,0-2.33,2.82,15.82,15.82,0,0,0-.59,4.4H63.61a21,21,0,0,0-.67-4.29A9.51,9.51,0,0,0,60.68,142.38Z"/><path class="cls-4" d="M4.17,141.12A23.7,23.7,0,0,1,.22,126c.34-5.09,3.55-10.28,6.12-14.45l1-1.6H57.69c2.27,3.59,6.08,10.53,6.47,17.17a20.79,20.79,0,0,1-4,14Z"/><path class="cls-2" d="M57.61,110.15c2.26,3.6,6,10.46,6.39,17A20.62,20.62,0,0,1,60.12,141H4.26A23.6,23.6,0,0,1,.38,126.05c.34-5,3.53-10.22,6.1-14.38l.93-1.52h50.2m.17-.32H7.23C4.5,114.34.45,120.2.06,126a23.77,23.77,0,0,0,4,15.25h56.2a21,21,0,0,0,4-14.13C64,121.26,60.93,114.8,57.78,109.83Z"/><path class="cls-5" d="M7.5,108.76a2.43,2.43,0,0,1-1.4-1,2.45,2.45,0,0,1-.47-2.09,3.24,3.24,0,0,1,3-2.63H56.87a3.25,3.25,0,0,1,3,2.62,2.47,2.47,0,0,1-.48,2.09,2.35,2.35,0,0,1-1.4,1H7.5Z"/><path class="cls-2" d="M56.87,103.2a3.08,3.08,0,0,1,2.84,2.51A2.59,2.59,0,0,1,58,108.6H7.51a2.26,2.26,0,0,1-1.28-.94,2.31,2.31,0,0,1-.45-2,3.09,3.09,0,0,1,2.84-2.5H56.87m0-.32H8.62a3.41,3.41,0,0,0-3.15,2.75,2.88,2.88,0,0,0,2,3.29H58a2.87,2.87,0,0,0,2-3.29A3.41,3.41,0,0,0,56.87,102.88Z"/><path class="cls-1" d="M9,101.53C-1.5,87.24-6.74,27.83,17.39,9.82a36.17,36.17,0,0,1,21-6.71A26.2,26.2,0,0,1,46.12,4.2l.09,0,.07-.08A26.26,26.26,0,0,1,50.65.2c3.67,3.21,2.86,5.14,2.07,7a11,11,0,0,0-.46,1.2l0,.12.11.06c1.21.64,4.22,2.64,6.21,7.55,2.15,5.3,8.67,13.21,13.68,16.6,5.48,3.7,4.08,6.44,2.14,10.23a29.17,29.17,0,0,1-5.13,7,17.69,17.69,0,0,1-2.88-1.92,13.62,13.62,0,0,0-3.93-2.34,14.18,14.18,0,0,0-5-.82A28.74,28.74,0,0,0,49.87,46a11.8,11.8,0,0,1-3,.44c-6.87,0-7.35-7.77-7.38-8.65a1.59,1.59,0,0,0-1.41-1.73c-.65,0-1.42.57-1.46,2.19C36.17,54.18,48,71.12,59.23,80.15l-2.68,21.38Z"/><path class="cls-2" d="M50.64.41c3.47,3.07,2.72,4.86,1.93,6.75-.16.39-.33.8-.46,1.21L52,8.62l.23.13c1.19.62,4.17,2.59,6.13,7.46,2.16,5.33,8.71,13.27,13.74,16.67,5.37,3.62,4,6.31,2.08,10a28.58,28.58,0,0,1-5,6.88,17,17,0,0,1-2.75-1.85,13.91,13.91,0,0,0-4-2.36,14.2,14.2,0,0,0-5.08-.83,29,29,0,0,0-7.57,1.13,11.51,11.51,0,0,1-3,.44c-6.71,0-7.19-7.63-7.22-8.5a1.75,1.75,0,0,0-1.57-1.88c-.72,0-1.57.61-1.62,2.35C36,54.2,47.84,71.15,59.06,80.22l-2.65,21.15H9.05C-1.36,87-6.54,27.88,17.49,10A36,36,0,0,1,38.34,3.27a25.8,25.8,0,0,1,7.72,1.08l.21.07.14-.16A25,25,0,0,1,50.64.41m0-.41a26.06,26.06,0,0,0-4.5,4.05A25.87,25.87,0,0,0,38.34,3,36.32,36.32,0,0,0,17.29,9.69C-7,27.84-1.53,87.62,8.89,101.69h47.8L59.4,80.08c-11.18-9-23.07-25.85-22.65-41.79,0-1.42.67-2,1.3-2s1.21.58,1.25,1.57c.12,3.34,1.8,8.81,7.54,8.81a11.62,11.62,0,0,0,3.07-.45,29,29,0,0,1,7.49-1.12,14,14,0,0,1,5,.81c3.28,1.26,3.92,2.79,6.9,4.3a28.67,28.67,0,0,0,5.24-7.12c2-3.94,3.29-6.74-2.19-10.43-4.82-3.26-11.39-11-13.62-16.53a14.64,14.64,0,0,0-6.28-7.63C53.12,6.14,55.32,4,50.66,0Z"/><path class="cls-3" d="M.94,149.44a15,15,0,0,1,.58-4.18A8.29,8.29,0,0,1,3.8,142.5l56.88,0a10.5,10.5,0,0,1,2.11,2.82,19.13,19.13,0,0,1,.64,4.08Z"/><path class="cls-2" d="M60.56,142.7a8.75,8.75,0,0,1,2.08,2.71,18,18,0,0,1,.62,3.87H1.1a14.09,14.09,0,0,1,.57-4,7.76,7.76,0,0,1,2.14-2.62H60.56m.12-.32H3.7a8.61,8.61,0,0,0-2.33,2.82,15.82,15.82,0,0,0-.59,4.4H63.61a21,21,0,0,0-.67-4.29A9.51,9.51,0,0,0,60.68,142.38Z"/><path class="cls-4" d="M4.17,141.12A23.7,23.7,0,0,1,.22,126c.34-5.09,3.55-10.28,6.12-14.45l1-1.6H57.69c2.27,3.59,6.08,10.53,6.47,17.17a20.79,20.79,0,0,1-4,14Z"/><path class="cls-2" d="M57.61,110.15c2.26,3.6,6,10.46,6.39,17A20.62,20.62,0,0,1,60.12,141H4.26A23.6,23.6,0,0,1,.38,126.05c.34-5,3.53-10.22,6.1-14.38l.93-1.52h50.2m.17-.32H7.23C4.5,114.34.45,120.2.06,126a23.77,23.77,0,0,0,4,15.25h56.2a21,21,0,0,0,4-14.13C64,121.26,60.93,114.8,57.78,109.83Z"/><path class="cls-5" d="M7.5,108.76a2.43,2.43,0,0,1-1.4-1,2.45,2.45,0,0,1-.47-2.09,3.24,3.24,0,0,1,3-2.63H56.87a3.25,3.25,0,0,1,3,2.62,2.47,2.47,0,0,1-.48,2.09,2.35,2.35,0,0,1-1.4,1H7.5Z"/><path class="cls-2" d="M56.87,103.2a3.08,3.08,0,0,1,2.84,2.51A2.59,2.59,0,0,1,58,108.6H7.51a2.26,2.26,0,0,1-1.28-.94,2.31,2.31,0,0,1-.45-2,3.09,3.09,0,0,1,2.84-2.5H56.87m0-.32H8.62a3.41,3.41,0,0,0-3.15,2.75,2.88,2.88,0,0,0,2,3.29H58a2.87,2.87,0,0,0,2-3.29A3.41,3.41,0,0,0,56.87,102.88Z"/></g></g></svg>