<svg xmlns="http://www.w3.org/2000/svg" xmlns:xlink="http://www.w3.org/1999/xlink" viewBox="0 0 52.54 149.6"><defs><style>.cls-1{fill:url(#linear-gradient);}.cls-2{fill:#a6a8ab;}.cls-3{fill:url(#linear-gradient-2);}.cls-4{fill:url(#linear-gradient-3);}.cls-5{fill:url(#linear-gradient-4);}.cls-6{fill-rule:evenodd;fill:url(#linear-gradient-5);}.cls-7{fill:url(#linear-gradient-6);}</style><linearGradient id="linear-gradient" x1="-101.97" y1="358.66" x2="-101.01" y2="358.66" gradientTransform="matrix(53.4, 0, 0, -53.4, 5445.81, 19299.4)" gradientUnits="userSpaceOnUse"><stop offset="0" stop-color="#cbccce"/><stop offset="0.66" stop-color="#ebecec"/><stop offset="1" stop-color="#fff"/></linearGradient><linearGradient id="linear-gradient-2" x1="-101.98" y1="358.63" x2="-101.03" y2="358.63" gradientTransform="matrix(54.65, 0, 0, -54.65, 5573.9, 19731.48)" xlink:href="#linear-gradient"/><linearGradient id="linear-gradient-3" x1="-101.88" y1="358.72" x2="-100.92" y2="358.72" gradientTransform="matrix(46.84, 0, 0, -46.84, 4776.41, 16920.17)" xlink:href="#linear-gradient"/><linearGradient id="linear-gradient-4" x1="-101.77" y1="358.8" x2="-100.81" y2="358.8" gradientTransform="matrix(40.69, 0, 0, -40.69, 4147.92, 14693.51)" xlink:href="#linear-gradient"/><linearGradient id="linear-gradient-5" x1="-100.79" y1="359.45" x2="-99.84" y2="359.45" gradientTransform="matrix(18.76, 0, 0, -18.76, 1908.63, 6753.23)" xlink:href="#linear-gradient"/><linearGradient id="linear-gradient-6" x1="-101.85" y1="358.68" x2="-100.89" y2="358.68" gradientTransform="matrix(44.92, 0, 0, -44.92, 4580, 16159.36)" xlink:href="#linear-gradient"/></defs><g id="Layer_2" data-name="Layer 2"><g id="Vector_Graphics" data-name="Vector Graphics"><path class="cls-1" d="M.72,149.48a10.53,10.53,0,0,1,.45-3.07,6.31,6.31,0,0,1,1.76-2l46.76,0a7.54,7.54,0,0,1,1.64,2.08,14.31,14.31,0,0,1,.5,3Z"/><path class="cls-2" d="M49.61,144.52a6.59,6.59,0,0,1,1.61,2,13.38,13.38,0,0,1,.48,2.84H.84a10.34,10.34,0,0,1,.44-2.91,5.89,5.89,0,0,1,1.66-1.93H49.61m.09-.24H2.86a6.33,6.33,0,0,0-1.8,2.08A11.44,11.44,0,0,0,.6,149.6H52a14.66,14.66,0,0,0-.52-3.16A7.1,7.1,0,0,0,49.7,144.28Z"/><path class="cls-3" d="M3.22,143.42A16.91,16.91,0,0,1,.16,132.3c.27-3.75,2.75-7.58,4.74-10.66l.76-1.17H47.39c1.75,2.65,4.7,7.77,5,12.66a14.84,14.84,0,0,1-3.06,10.29Z"/><path class="cls-2" d="M47.32,120.59c1.76,2.66,4.65,7.72,5,12.55a14.69,14.69,0,0,1-3,10.16h-46a16.83,16.83,0,0,1-3-11C.55,128.59,3,124.78,5,121.71l.72-1.12h41.6m.13-.23H5.59C3.48,123.68.35,128,.05,132.29a16.94,16.94,0,0,0,3.11,11.25H49.39a15,15,0,0,0,3.12-10.41C52.24,128.78,49.89,124,47.45,120.36Z"/><path class="cls-4" d="M5.8,119.49a1.87,1.87,0,0,1-1.13-.79,1.71,1.71,0,0,1-.32-1.48,2.49,2.49,0,0,1,2.32-1.94H46.75a2.49,2.49,0,0,1,2.32,1.94,1.72,1.72,0,0,1-.33,1.48,1.87,1.87,0,0,1-1.13.79H5.8Z"/><path class="cls-2" d="M46.75,115.4a2.36,2.36,0,0,1,2.2,1.85,1.58,1.58,0,0,1-.31,1.38,1.74,1.74,0,0,1-1,.74H5.8a1.76,1.76,0,0,1-1-.74,1.6,1.6,0,0,1-.31-1.38,2.37,2.37,0,0,1,2.21-1.85H46.75m0-.24H6.67a2.61,2.61,0,0,0-2.44,2,2.12,2.12,0,0,0,1.57,2.42H47.62a2.11,2.11,0,0,0,1.56-2.42A2.6,2.6,0,0,0,46.75,115.16Z"/><path class="cls-5" d="M7.18,114.38c.63-1.42,1.24-2.77,1.83-4.07,4.31-9.52,7.71-17,9-36.71H34.58c1.18,18.62,4.8,26.31,9,35.2.83,1.78,1.69,3.61,2.56,5.58Z"/><path class="cls-2" d="M34.47,73.72c1.19,18.56,4.81,26.24,9,35.13.81,1.73,1.64,3.5,2.49,5.41H7.37c.6-1.36,1.18-2.65,1.75-3.9,4.3-9.52,7.71-17,9-36.64H34.47m.23-.24H17.85C16.44,96,12.22,102.57,7,114.5H46.31C41.09,102.57,36.11,96,34.7,73.48Z"/><path class="cls-6" d="M26.67,18.47a8.77,8.77,0,0,1-4.49-1.24,9.71,9.71,0,0,0,.81-.75C25,14.39,25.9,12,24.93,11a1.5,1.5,0,0,0-1.11-.41c-1.19,0-2.88.94-4.29,2.38a10.44,10.44,0,0,0-.71.8,9.39,9.39,0,0,1,.09-9.06,11.51,11.51,0,0,0,.78.88C21.11,7,22.79,7.94,24,7.94a1.46,1.46,0,0,0,1.09-.41c1-1,.13-3.41-1.93-5.51-.27-.28-.55-.54-.81-.76a8.8,8.8,0,0,1,8.68,0,9.33,9.33,0,0,0-.71.66c-2,2.09-2.9,4.51-1.93,5.5a1.48,1.48,0,0,0,1.1.41,7,7,0,0,0,4.3-2.38,9.67,9.67,0,0,0,.67-.75,9.28,9.28,0,0,1,1.21,4.58,9.4,9.4,0,0,1-1.17,4.53c-.24-.3-.5-.59-.78-.88-1.42-1.44-3.1-2.38-4.3-2.38a1.49,1.49,0,0,0-1.1.41c-1,1-.12,3.41,1.93,5.5a9.37,9.37,0,0,0,.87.8A8.83,8.83,0,0,1,26.67,18.47Z"/><path class="cls-2" d="M26.67.24a8.66,8.66,0,0,1,4.14,1.05c-.22.19-.41.37-.59.55C28.13,4,27.28,6.48,28.3,7.52A1.59,1.59,0,0,0,29.48,8c1.25,0,2.93-.93,4.39-2.42.19-.19.38-.4.56-.62a9.12,9.12,0,0,1,1.11,4.37,9.27,9.27,0,0,1-1.07,4.32,9.45,9.45,0,0,0-.67-.75c-1.46-1.49-3.14-2.42-4.39-2.42a1.6,1.6,0,0,0-1.18.45c-1,1-.17,3.53,1.93,5.67a8.29,8.29,0,0,0,.75.69,8.7,8.7,0,0,1-4.24,1.1,8.54,8.54,0,0,1-4.28-1.14c.24-.21.47-.42.69-.65,2.1-2.14,3-4.63,1.93-5.67a1.61,1.61,0,0,0-1.19-.45c-1.24,0-2.92.93-4.38,2.42-.22.22-.43.46-.6.66a9.16,9.16,0,0,1-1-4.22,9.25,9.25,0,0,1,1.11-4.41c.2.25.42.49.67.76A7.12,7.12,0,0,0,24,8.06a1.63,1.63,0,0,0,1.18-.44c1-1,.17-3.53-1.93-5.68-.23-.24-.47-.46-.69-.65a8.64,8.64,0,0,1,4.12-1m0-.24a8.89,8.89,0,0,0-4.54,1.25,10.46,10.46,0,0,1,.94.85c2,2,2.84,4.42,1.93,5.35a1.37,1.37,0,0,1-1,.37,6.92,6.92,0,0,1-4.22-2.34,11.5,11.5,0,0,1-.87-1A9.53,9.53,0,0,0,17.58,9.3,9.34,9.34,0,0,0,18.8,14c.25-.31.51-.62.81-.93a6.88,6.88,0,0,1,4.21-2.34,1.39,1.39,0,0,1,1,.37c.91.94.05,3.33-1.93,5.35a12.23,12.23,0,0,1-.94.85,8.94,8.94,0,0,0,9.35,0,10.32,10.32,0,0,1-1-.9c-2-2-2.84-4.41-1.93-5.34a1.35,1.35,0,0,1,1-.37A6.86,6.86,0,0,1,33.62,13a9.17,9.17,0,0,1,.88,1,9.43,9.43,0,0,0,0-9.54c-.23.29-.49.59-.77.88a6.9,6.9,0,0,1-4.22,2.34,1.35,1.35,0,0,1-1-.37c-.91-.93,0-3.32,1.92-5.34a9.77,9.77,0,0,1,.84-.76A8.89,8.89,0,0,0,26.67,0Z"/><path class="cls-7" d="M12.34,72.58c-.31,0-2.77-1.47-2.56-3.74A4.49,4.49,0,0,1,12.9,65h2.43l.76-13.51C16,51.24,7.79,39,6.53,37A10.46,10.46,0,0,1,4.78,31.7,7.66,7.66,0,0,1,12.35,24h4.48v-2a2.11,2.11,0,0,1,2.08-2.13H33.65a2.12,2.12,0,0,1,2.08,2.13v2h4.48a7.66,7.66,0,0,1,7.57,7.73A10.46,10.46,0,0,1,46,37c-1.26,2-9.36,14-9.44,14.09L37.23,65h2.49a4.81,4.81,0,0,1,3,4.1c.23,2.36-2.21,3.51-2.42,3.53H12.34Z"/><path class="cls-2" d="M33.65,19.91a2,2,0,0,1,2,2v2.17h4.6a7.55,7.55,0,0,1,7.45,7.62,10.39,10.39,0,0,1-1.73,5.19c-1.26,2-9.36,14-9.44,14.08l0,.06v.08l.65,13.73v.23h2.6a4.74,4.74,0,0,1,2.85,4c.22,2.22-2.11,3.38-2.29,3.4H12.37C12,72.41,9.69,71,9.9,68.85a4.36,4.36,0,0,1,3-3.78h2.54v-.23l.76-13.39v-.08l0-.07c-.08-.12-8.28-12.36-9.54-14.41A10.36,10.36,0,0,1,4.9,31.7a7.54,7.54,0,0,1,7.45-7.62H17V21.92a2,2,0,0,1,2-2H33.65m0-.24H18.91a2.23,2.23,0,0,0-2.2,2.25v1.93H12.35A7.77,7.77,0,0,0,4.66,31.7,10.63,10.63,0,0,0,6.42,37C7.71,39.09,16,51.43,16,51.43l-.75,13.4H12.9a4.56,4.56,0,0,0-3.23,4c-.23,2.36,2.31,3.83,2.67,3.87H40.27c.36,0,2.76-1.31,2.53-3.66a4.89,4.89,0,0,0-3.08-4.21H37.34L36.69,51.1s8.16-12,9.44-14.08A10.64,10.64,0,0,0,47.9,31.7a7.77,7.77,0,0,0-7.69-7.85H35.85V21.92A2.23,2.23,0,0,0,33.65,19.67Z"/><path class="cls-1" d="M.72,149.48a10.53,10.53,0,0,1,.45-3.07,6.31,6.31,0,0,1,1.76-2l46.76,0a7.54,7.54,0,0,1,1.64,2.08,14.31,14.31,0,0,1,.5,3Z"/><path class="cls-2" d="M49.61,144.52a6.59,6.59,0,0,1,1.61,2,13.38,13.38,0,0,1,.48,2.84H.84a10.34,10.34,0,0,1,.44-2.91,5.89,5.89,0,0,1,1.66-1.93H49.61m.09-.24H2.86a6.33,6.33,0,0,0-1.8,2.08A11.44,11.44,0,0,0,.6,149.6H52a14.66,14.66,0,0,0-.52-3.16A7.1,7.1,0,0,0,49.7,144.28Z"/><path class="cls-3" d="M3.22,143.42A16.91,16.91,0,0,1,.16,132.3c.27-3.75,2.75-7.58,4.74-10.66l.76-1.17H47.39c1.75,2.65,4.7,7.77,5,12.66a14.84,14.84,0,0,1-3.06,10.29Z"/><path class="cls-2" d="M47.32,120.59c1.76,2.66,4.65,7.72,5,12.55a14.69,14.69,0,0,1-3,10.16h-46a16.83,16.83,0,0,1-3-11C.55,128.59,3,124.78,5,121.71l.72-1.12h41.6m.13-.23H5.59C3.48,123.68.35,128,.05,132.29a16.94,16.94,0,0,0,3.11,11.25H49.39a15,15,0,0,0,3.12-10.41C52.24,128.78,49.89,124,47.45,120.36Z"/><path class="cls-4" d="M5.8,119.49a1.87,1.87,0,0,1-1.13-.79,1.71,1.71,0,0,1-.32-1.48,2.49,2.49,0,0,1,2.32-1.94H46.75a2.49,2.49,0,0,1,2.32,1.94,1.72,1.72,0,0,1-.33,1.48,1.87,1.87,0,0,1-1.13.79H5.8Z"/><path class="cls-2" d="M46.75,115.4a2.36,2.36,0,0,1,2.2,1.85,1.58,1.58,0,0,1-.31,1.38,1.74,1.74,0,0,1-1,.74H5.8a1.76,1.76,0,0,1-1-.74,1.6,1.6,0,0,1-.31-1.38,2.37,2.37,0,0,1,2.21-1.85H46.75m0-.24H6.67a2.61,2.61,0,0,0-2.44,2,2.12,2.12,0,0,0,1.57,2.42H47.62a2.11,2.11,0,0,0,1.56-2.42A2.6,2.6,0,0,0,46.75,115.16Z"/><path class="cls-5" d="M7.18,114.38c.63-1.42,1.24-2.77,1.83-4.07,4.31-9.52,7.71-17,9-36.71H34.58c1.18,18.62,4.8,26.31,9,35.2.83,1.78,1.69,3.61,2.56,5.58Z"/><path class="cls-2" d="M34.47,73.72c1.19,18.56,4.81,26.24,9,35.13.81,1.73,1.64,3.5,2.49,5.41H7.37c.6-1.36,1.18-2.65,1.75-3.9,4.3-9.52,7.71-17,9-36.64H34.47m.23-.24H17.85C16.44,96,12.22,102.57,7,114.5H46.31C41.09,102.57,36.11,96,34.7,73.48Z"/><path class="cls-7" d="M12.34,72.58c-.31,0-2.77-1.47-2.56-3.74A4.49,4.49,0,0,1,12.9,65h2.43l.76-13.51C16,51.24,7.79,39,6.53,37A10.46,10.46,0,0,1,4.78,31.7,7.66,7.66,0,0,1,12.35,24h4.48v-2a2.11,2.11,0,0,1,2.08-2.13H33.65a2.12,2.12,0,0,1,2.08,2.13v2h4.48a7.66,7.66,0,0,1,7.57,7.73A10.46,10.46,0,0,1,46,37c-1.26,2-9.36,14-9.44,14.09L37.23,65h2.49a4.81,4.81,0,0,1,3,4.1c.23,2.36-2.21,3.51-2.42,3.53H12.34Z"/><path class="cls-2" d="M33.65,19.91a2,2,0,0,1,2,2v2.17h4.6a7.55,7.55,0,0,1,7.45,7.62,10.39,10.39,0,0,1-1.73,5.19c-1.26,2-9.36,14-9.44,14.08l0,.06v.08l.65,13.73v.23h2.6a4.74,4.74,0,0,1,2.85,4c.22,2.22-2.11,3.38-2.29,3.4H12.37C12,72.41,9.69,71,9.9,68.85a4.36,4.36,0,0,1,3-3.78h2.54v-.23l.76-13.39v-.08l0-.07c-.08-.12-8.28-12.36-9.54-14.41A10.36,10.36,0,0,1,4.9,31.7a7.54,7.54,0,0,1,7.45-7.62H17V21.92a2,2,0,0,1,2-2H33.65m0-.24H18.91a2.23,2.23,0,0,0-2.2,2.25v1.93H12.35A7.77,7.77,0,0,0,4.66,31.7,10.63,10.63,0,0,0,6.42,37C7.71,39.09,16,51.43,16,51.43l-.75,13.4H12.9a4.56,4.56,0,0,0-3.23,4c-.23,2.36,2.31,3.83,2.67,3.87H40.27c.36,0,2.76-1.31,2.53-3.66a4.89,4.89,0,0,0-3.08-4.21H37.34L36.69,51.1s8.16-12,9.44-14.08A10.64,10.64,0,0,0,47.9,31.7a7.77,7.77,0,0,0-7.69-7.85H35.85V21.92A2.23,2.23,0,0,0,33.65,19.67Z"/></g></g></svg>