<svg xmlns="http://www.w3.org/2000/svg" xmlns:xlink="http://www.w3.org/1999/xlink" viewBox="0 0 58.67 149.6"><defs><style>.cls-1{fill:url(#linear-gradient);}.cls-2{fill:#a6a8ab;}.cls-3{fill:url(#linear-gradient-2);}.cls-4{fill:url(#linear-gradient-3);}.cls-5{fill:url(#linear-gradient-4);}.cls-6{fill:url(#linear-gradient-5);}.cls-7{fill:url(#linear-gradient-6);}</style><linearGradient id="linear-gradient" x1="-192.37" y1="358.88" x2="-191.34" y2="358.88" gradientTransform="matrix(41.92, 0, 0, -41.92, 8071.93, 15134.41)" gradientUnits="userSpaceOnUse"><stop offset="0" stop-color="#cbccce"/><stop offset="0.66" stop-color="#ebecec"/><stop offset="1" stop-color="#fff"/></linearGradient><linearGradient id="linear-gradient-2" x1="-190.67" y1="360.11" x2="-189.63" y2="360.11" gradientTransform="matrix(17.99, 0, 0, -17.99, 3451.46, 6488.57)" xlink:href="#linear-gradient"/><linearGradient id="linear-gradient-3" x1="-192.68" y1="358.65" x2="-191.65" y2="358.65" gradientTransform="matrix(55.22, 0, 0, -55.22, 10640.27, 19951.29)" xlink:href="#linear-gradient"/><linearGradient id="linear-gradient-4" x1="-192.7" y1="358.64" x2="-191.67" y2="358.64" gradientTransform="matrix(56.47, 0, 0, -56.47, 10882.46, 20383.87)" xlink:href="#linear-gradient"/><linearGradient id="linear-gradient-5" x1="-192.55" y1="358.74" x2="-191.52" y2="358.74" gradientTransform="matrix(48.66, 0, 0, -48.66, 9374.38, 17571.64)" xlink:href="#linear-gradient"/><linearGradient id="linear-gradient-6" x1="-192.52" y1="358.81" x2="-191.49" y2="358.81" gradientTransform="matrix(47.39, 0, 0, -47.39, 9129.79, 17048.79)" xlink:href="#linear-gradient"/></defs><g id="Layer_2" data-name="Layer 2"><g id="Vector_Graphics" data-name="Vector Graphics"><path class="cls-1" d="M8.22,112.08l.63-1.17c5.6-10.39,10.44-19.36,11.93-42.29H39c1.5,23.16,6.68,32.61,12.15,42.62l.46.84Z"/><path class="cls-2" d="M38.85,68.75C40.36,91.85,45.53,101.3,51,111.3l.35.65H8.43L9,111c5.6-10.38,10.44-19.35,11.94-42.22h18m.24-.26H20.66C19.11,92.5,13.8,101.42,8,112.21H51.8C46.08,101.73,40.63,92.5,39.09,68.49Z"/><path class="cls-3" d="M30.19,18.74a9.31,9.31,0,1,1,9.3-9.31A9.32,9.32,0,0,1,30.19,18.74Z"/><path class="cls-2" d="M30.19.26A9.18,9.18,0,1,1,21,9.43,9.18,9.18,0,0,1,30.19.26m0-.26a9.44,9.44,0,1,0,9.43,9.43A9.43,9.43,0,0,0,30.19,0Z"/><path class="cls-4" d="M.78,149.47a11.2,11.2,0,0,1,.48-3.25,6.72,6.72,0,0,1,1.91-2.15l52.42,0a8.08,8.08,0,0,1,1.77,2.2,14.35,14.35,0,0,1,.54,3.17Z"/><path class="cls-2" d="M55.5,144.22a7.08,7.08,0,0,1,1.74,2.13,13.06,13.06,0,0,1,.52,3H.91a10.44,10.44,0,0,1,.47-3.07,6.33,6.33,0,0,1,1.8-2.05H55.5m.09-.25H3.09a6.83,6.83,0,0,0-1.94,2.2,11.41,11.41,0,0,0-.5,3.43H58a15.31,15.31,0,0,0-.56-3.35A7.6,7.6,0,0,0,55.59,144Z"/><path class="cls-5" d="M3.48,143.05A17.52,17.52,0,0,1,.18,131.3c.29-4,3-8,5.12-11.28l.81-1.24h47c1.9,2.8,5.08,8.22,5.4,13.4a15.44,15.44,0,0,1-3.3,10.87Z"/><path class="cls-2" d="M53,118.91c1.89,2.81,5,8.16,5.34,13.28a15.25,15.25,0,0,1-3.24,10.73H3.55A17.4,17.4,0,0,1,.31,131.31c.28-3.94,2.95-8,5.1-11.22.26-.4.53-.8.77-1.18H53m.14-.26H6c-2.28,3.53-5.66,8.1-6,12.64a17.66,17.66,0,0,0,3.37,11.89H55.26a15.57,15.57,0,0,0,3.37-11C58.34,127.57,55.8,122.53,53.17,118.65Z"/><path class="cls-6" d="M6.27,117.74A2.11,2.11,0,0,1,5,116.88a1.78,1.78,0,0,1-.33-1.54,2.67,2.67,0,0,1,2.5-2H52.41a2.67,2.67,0,0,1,2.5,2,1.79,1.79,0,0,1-.33,1.55,2,2,0,0,1-1.24.86H6.27Z"/><path class="cls-2" d="M52.41,113.42a2.55,2.55,0,0,1,2.38,2,1.65,1.65,0,0,1-.32,1.43,2,2,0,0,1-1.12.81H6.28a2,2,0,0,1-1.14-.81,1.62,1.62,0,0,1-.31-1.43,2.53,2.53,0,0,1,2.37-2H52.41m0-.26H7.2a2.81,2.81,0,0,0-2.63,2.14,2.26,2.26,0,0,0,1.69,2.57H53.35A2.26,2.26,0,0,0,55,115.3,2.81,2.81,0,0,0,52.41,113.16Z"/><path class="cls-7" d="M18.16,67.68H13c-.37,0-3.29-1.7-3-4.32a5.23,5.23,0,0,1,3.68-4.5h5.56v-.12c.9-14-6.21-25.88-11.3-29.46-.74-.52-4.31-3.31-1.73-7a4.69,4.69,0,0,1,3.92-2.08,4.33,4.33,0,0,1,1.11.13,7.48,7.48,0,0,1,1.25.6,9.35,9.35,0,0,0,4.3,1.41,11.81,11.81,0,0,0,6.59-2.49c1.86,1.36,4.07,2.72,6.46,2.72s4.48-1.31,6.1-2.45a2.3,2.3,0,0,1,.28-.27h.08l.62.49a10.92,10.92,0,0,0,5.88,2,9.2,9.2,0,0,0,4.3-1.42,8.63,8.63,0,0,1,1.25-.59,4.36,4.36,0,0,1,1.12-.13,4.69,4.69,0,0,1,3.92,2.08c2.57,3.68-1,6.47-1.73,7-5.07,3.56-12.16,15.35-11.31,29.36l0,.15.13.07h4.79a5.6,5.6,0,0,1,3.5,4.74c.26,2.6-2.42,4-2.86,4.08H18.16Z"/><path class="cls-2" d="M36.27,20l.06,0h0l.55.44a11,11,0,0,0,5.94,2A9.42,9.42,0,0,0,47.18,21a6.67,6.67,0,0,1,1.23-.58,4,4,0,0,1,1.08-.14,4.57,4.57,0,0,1,3.81,2c2.51,3.57-1,6.29-1.7,6.8-5.08,3.58-12.21,15.41-11.36,29.45v.07l0,.3h5.08a5.5,5.5,0,0,1,3.38,4.62c.26,2.6-2.51,3.92-2.73,3.94H13.06c-.38-.06-3.17-1.69-2.92-4.19A5.14,5.14,0,0,1,13.69,59h5.68l0-.24c.9-14.09-6.25-26-11.36-29.58-.72-.5-4.2-3.22-1.7-6.8a4.57,4.57,0,0,1,3.82-2,4,4,0,0,1,1.07.14,6.67,6.67,0,0,1,1.23.58,9.42,9.42,0,0,0,4.36,1.43A11.78,11.78,0,0,0,23.39,20c1.87,1.35,4.08,2.69,6.47,2.69S34.4,21.38,36,20.23l0,0,0,0,.19-.2m0-.3a2.7,2.7,0,0,0-.36.33c-1.73,1.22-3.81,2.42-6,2.42-2.43,0-4.64-1.42-6.46-2.75a11.64,11.64,0,0,1-6.59,2.52c-2.4,0-4.46-1.71-5.52-2a4.42,4.42,0,0,0-1.14-.14,4.79,4.79,0,0,0-4,2.14c-2.28,3.25.06,6,1.76,7.17C13.21,33.12,20,45.21,19.13,58.72H13.69a5.31,5.31,0,0,0-3.81,4.62c-.26,2.72,2.73,4.41,3.15,4.46H45.92c.42,0,3.25-1.51,3-4.23a5.67,5.67,0,0,0-3.63-4.85H40.48l0-.1c-.82-13.47,5.93-25.51,11.25-29.24,1.71-1.21,4-3.92,1.76-7.17a4.78,4.78,0,0,0-4-2.14,4.45,4.45,0,0,0-1.15.14c-1.06.29-3.11,2-5.52,2a10.86,10.86,0,0,1-5.8-2c-.23-.19-.46-.37-.68-.53l-.05,0Z"/><path class="cls-1" d="M8.22,112.08l.63-1.17c5.6-10.39,10.44-19.36,11.93-42.29H39c1.5,23.16,6.68,32.61,12.15,42.62l.46.84Z"/><path class="cls-2" d="M38.85,68.75C40.36,91.85,45.53,101.3,51,111.3l.35.65H8.43L9,111c5.6-10.38,10.44-19.35,11.94-42.22h18m.24-.26H20.66C19.11,92.5,13.8,101.42,8,112.21H51.8C46.08,101.73,40.63,92.5,39.09,68.49Z"/><path class="cls-4" d="M.78,149.47a11.2,11.2,0,0,1,.48-3.25,6.72,6.72,0,0,1,1.91-2.15l52.42,0a8.08,8.08,0,0,1,1.77,2.2,14.35,14.35,0,0,1,.54,3.17Z"/><path class="cls-2" d="M55.5,144.22a7.08,7.08,0,0,1,1.74,2.13,13.06,13.06,0,0,1,.52,3H.91a10.44,10.44,0,0,1,.47-3.07,6.33,6.33,0,0,1,1.8-2.05H55.5m.09-.25H3.09a6.83,6.83,0,0,0-1.94,2.2,11.41,11.41,0,0,0-.5,3.43H58a15.31,15.31,0,0,0-.56-3.35A7.6,7.6,0,0,0,55.59,144Z"/><path class="cls-5" d="M3.48,143.05A17.52,17.52,0,0,1,.18,131.3c.29-4,3-8,5.12-11.28l.81-1.24h47c1.9,2.8,5.08,8.22,5.4,13.4a15.44,15.44,0,0,1-3.3,10.87Z"/><path class="cls-2" d="M53,118.91c1.89,2.81,5,8.16,5.34,13.28a15.25,15.25,0,0,1-3.24,10.73H3.55A17.4,17.4,0,0,1,.31,131.31c.28-3.94,2.95-8,5.1-11.22.26-.4.53-.8.77-1.18H53m.14-.26H6c-2.28,3.53-5.66,8.1-6,12.64a17.66,17.66,0,0,0,3.37,11.89H55.26a15.57,15.57,0,0,0,3.37-11C58.34,127.57,55.8,122.53,53.17,118.65Z"/><path class="cls-6" d="M6.27,117.74A2.11,2.11,0,0,1,5,116.88a1.78,1.78,0,0,1-.33-1.54,2.67,2.67,0,0,1,2.5-2H52.41a2.67,2.67,0,0,1,2.5,2,1.79,1.79,0,0,1-.33,1.55,2,2,0,0,1-1.24.86H6.27Z"/><path class="cls-2" d="M52.41,113.42a2.55,2.55,0,0,1,2.38,2,1.65,1.65,0,0,1-.32,1.43,2,2,0,0,1-1.12.81H6.28a2,2,0,0,1-1.14-.81,1.62,1.62,0,0,1-.31-1.43,2.53,2.53,0,0,1,2.37-2H52.41m0-.26H7.2a2.81,2.81,0,0,0-2.63,2.14,2.26,2.26,0,0,0,1.69,2.57H53.35A2.26,2.26,0,0,0,55,115.3,2.81,2.81,0,0,0,52.41,113.16Z"/><path class="cls-7" d="M18.16,67.68H13c-.37,0-3.29-1.7-3-4.32a5.23,5.23,0,0,1,3.68-4.5h5.56v-.12c.9-14-6.21-25.88-11.3-29.46-.74-.52-4.31-3.31-1.73-7a4.69,4.69,0,0,1,3.92-2.08,4.33,4.33,0,0,1,1.11.13,7.48,7.48,0,0,1,1.25.6,9.35,9.35,0,0,0,4.3,1.41,11.81,11.81,0,0,0,6.59-2.49c1.86,1.36,4.07,2.72,6.46,2.72s4.48-1.31,6.1-2.45a2.3,2.3,0,0,1,.28-.27h.08l.62.49a10.92,10.92,0,0,0,5.88,2,9.2,9.2,0,0,0,4.3-1.42,8.63,8.63,0,0,1,1.25-.59,4.36,4.36,0,0,1,1.12-.13,4.69,4.69,0,0,1,3.92,2.08c2.57,3.68-1,6.47-1.73,7-5.07,3.56-12.16,15.35-11.31,29.36l0,.15.13.07h4.79a5.6,5.6,0,0,1,3.5,4.74c.26,2.6-2.42,4-2.86,4.08H18.16Z"/><path class="cls-2" d="M36.27,20l.06,0h0l.55.44a11,11,0,0,0,5.94,2A9.42,9.42,0,0,0,47.18,21a6.67,6.67,0,0,1,1.23-.58,4,4,0,0,1,1.08-.14,4.57,4.57,0,0,1,3.81,2c2.51,3.57-1,6.29-1.7,6.8-5.08,3.58-12.21,15.41-11.36,29.45v.07l0,.3h5.08a5.5,5.5,0,0,1,3.38,4.62c.26,2.6-2.51,3.92-2.73,3.94H13.06c-.38-.06-3.17-1.69-2.92-4.19A5.14,5.14,0,0,1,13.69,59h5.68l0-.24c.9-14.09-6.25-26-11.36-29.58-.72-.5-4.2-3.22-1.7-6.8a4.57,4.57,0,0,1,3.82-2,4,4,0,0,1,1.07.14,6.67,6.67,0,0,1,1.23.58,9.42,9.42,0,0,0,4.36,1.43A11.78,11.78,0,0,0,23.39,20c1.87,1.35,4.08,2.69,6.47,2.69S34.4,21.38,36,20.23l0,0,0,0,.19-.2m0-.3a2.7,2.7,0,0,0-.36.33c-1.73,1.22-3.81,2.42-6,2.42-2.43,0-4.64-1.42-6.46-2.75a11.64,11.64,0,0,1-6.59,2.52c-2.4,0-4.46-1.71-5.52-2a4.42,4.42,0,0,0-1.14-.14,4.79,4.79,0,0,0-4,2.14c-2.28,3.25.06,6,1.76,7.17C13.21,33.12,20,45.21,19.13,58.72H13.69a5.31,5.31,0,0,0-3.81,4.62c-.26,2.72,2.73,4.41,3.15,4.46H45.92c.42,0,3.25-1.51,3-4.23a5.67,5.67,0,0,0-3.63-4.85H40.48l0-.1c-.82-13.47,5.93-25.51,11.25-29.24,1.71-1.21,4-3.92,1.76-7.17a4.78,4.78,0,0,0-4-2.14,4.45,4.45,0,0,0-1.15.14c-1.06.29-3.11,2-5.52,2a10.86,10.86,0,0,1-5.8-2c-.23-.19-.46-.37-.68-.53l-.05,0Z"/></g></g></svg>