<svg xmlns="http://www.w3.org/2000/svg" xmlns:xlink="http://www.w3.org/1999/xlink" viewBox="0 0 55.59 149.6"><defs><style>.cls-1{fill:url(#linear-gradient);}.cls-2{fill:#a6a8ab;}.cls-3{fill:url(#linear-gradient-2);}.cls-4{fill:url(#linear-gradient-3);}.cls-5{fill:url(#linear-gradient-4);}.cls-6{fill:url(#linear-gradient-5);}.cls-7{fill:url(#linear-gradient-6);}</style><linearGradient id="linear-gradient" x1="-288.47" y1="359.17" x2="-287.34" y2="359.17" gradientTransform="matrix(35.1, 0, 0, -35.1, 10134.32, 12695.02)" gradientUnits="userSpaceOnUse"><stop offset="0" stop-color="#cbccce"/><stop offset="0.66" stop-color="#ebecec"/><stop offset="1" stop-color="#fff"/></linearGradient><linearGradient id="linear-gradient-2" x1="-287.84" y1="359.73" x2="-286.71" y2="359.73" gradientTransform="matrix(27.76, 0, 0, -27.76, 8002.01, 10011.49)" xlink:href="#linear-gradient"/><linearGradient id="linear-gradient-3" x1="-289.06" y1="358.75" x2="-287.93" y2="358.75" gradientTransform="matrix(46.63, 0, 0, -46.63, 13479.43, 16873.46)" xlink:href="#linear-gradient"/><linearGradient id="linear-gradient-4" x1="-289.15" y1="358.76" x2="-288.02" y2="358.76" gradientTransform="matrix(49.03, 0, 0, -49.03, 14177.25, 17716.93)" xlink:href="#linear-gradient"/><linearGradient id="linear-gradient-5" x1="-288.85" y1="358.95" x2="-287.72" y2="358.95" gradientTransform="matrix(41.75, 0, 0, -41.75, 12062.45, 15091.98)" xlink:href="#linear-gradient"/><linearGradient id="linear-gradient-6" x1="-287.99" y1="359.49" x2="-286.86" y2="359.49" gradientTransform="matrix(29.25, 0, 0, -29.25, 8436.89, 10577.7)" xlink:href="#linear-gradient"/></defs><g id="Layer_2" data-name="Layer 2"><g id="Vector_Graphics" data-name="Vector Graphics"><path class="cls-1" d="M8.58,103.69c4.36-8.83,10.13-21.65,10.61-32H37.35c.49,10.44,6.91,23.86,10.82,32Z"/><path class="cls-2" d="M37.22,71.83C37.75,82.19,44,95.42,48,103.55H8.81c4.33-8.8,10-21.44,10.52-31.72H37.22m.27-.28H19.06c-.44,10.37-6.26,23.28-10.71,32.28h40C44.19,95.09,37.93,81.92,37.49,71.55Z"/><path class="cls-3" d="M17.67,52.42a2.75,2.75,0,0,1,0-5.49H18l-.26-.24c-4.67-4.38-6.28-12.84-4.5-16.93a42.65,42.65,0,0,1,4.13-7c.61-.9,1.23-1.8,1.81-2.72l3.4,7.53s.31,1.47,1.64,1.47a1,1,0,0,0,.94-.42c.3-.52-.12-1.32-.14-1.35l-4.39-9.64,2.82-4.15c1-1.45,2-2.95,2.83-4.15l.09-.13-.14-.08c-1.45-.73-2.18-2.23-2.18-4.45,0-2.81,1.58-4.55,4.14-4.55a4.4,4.4,0,0,1,4.64,4.55,4.74,4.74,0,0,1-2.49,4.45l-.14.08.09.13c1.6,2.39,3,4.42,4.29,6.25,3.72,5.35,6.18,8.89,8.48,14.16,1.85,4.25.41,12.57-4.24,16.93l-.26.24h.36a2.75,2.75,0,0,1,0,5.49Z"/><path class="cls-2" d="M28.21.28a4.26,4.26,0,0,1,4.5,4.41A4.62,4.62,0,0,1,30.29,9L30,9.16l.18.27c1.6,2.39,3,4.44,4.29,6.25C38.2,21,40.65,24.55,43,29.82c1.84,4.21.4,12.45-4.2,16.76l-.52.49h.71a2.61,2.61,0,0,1,0,5.21H17.67a2.61,2.61,0,0,1,0-5.21h.71l-.52-.49c-4.63-4.34-6.23-12.72-4.47-16.76a42.8,42.8,0,0,1,4.11-7c.56-.82,1.13-1.65,1.68-2.5l3.28,7.26a1.9,1.9,0,0,0,1.78,1.58h.06a1.08,1.08,0,0,0,1-.49,1.71,1.71,0,0,0-.13-1.47l-4.36-9.58c.68-1,1.71-2.52,2.78-4.08s2-2.95,2.83-4.15l.18-.27L26.31,9c-1.39-.71-2.1-2.17-2.1-4.33,0-2.76,1.49-4.41,4-4.41m0-.28c-2.7,0-4.28,1.84-4.28,4.69,0,2,.62,3.75,2.26,4.58-1.73,2.57-4.43,6.45-5.7,8.37l4.42,9.72s.83,1.52-.61,1.56h-.06c-1.24,0-1.51-1.38-1.51-1.38l-3.51-7.77c-2,3.23-4.45,6.19-6.09,9.93-1.91,4.4,0,12.82,4.54,17.09a2.89,2.89,0,0,0,0,5.77H38.94a2.89,2.89,0,0,0,0-5.77c4.56-4.27,6.18-12.69,4.27-17.09-3.1-7.08-6.46-11-12.79-20.43A4.92,4.92,0,0,0,33,4.69,4.54,4.54,0,0,0,28.21,0Z"/><path class="cls-4" d="M1.39,149.46a18.14,18.14,0,0,1,.45-4,7.93,7.93,0,0,1,1.76-2.66l48.22,0a8.57,8.57,0,0,1,1.66,2.72,22.56,22.56,0,0,1,.5,3.94Z"/><path class="cls-2" d="M51.75,143a8.13,8.13,0,0,1,1.6,2.61,21.49,21.49,0,0,1,.48,3.76H1.53A16.82,16.82,0,0,1,2,145.47,7.53,7.53,0,0,1,3.61,143H51.75m.13-.29H3.5a8,8,0,0,0-1.79,2.72,19.12,19.12,0,0,0-.46,4.22H54.13a24.16,24.16,0,0,0-.51-4.12A9.16,9.16,0,0,0,51.88,142.66Z"/><path class="cls-5" d="M3.89,141.56A27.16,27.16,0,0,1,.17,127.05c.23-4.31,2.54-8.61,4.58-12.41.56-1,1.1-2,1.56-3H49.56c.25.5.52,1,.78,1.52,2.27,4.4,4.85,9.39,5.08,14.4.21,4.45-1.11,9.16-3.93,14Z"/><path class="cls-2" d="M49.48,111.78l.74,1.45c2.26,4.38,4.83,9.35,5.07,14.34.2,4.4-1.1,9.05-3.88,13.84H4A27,27,0,0,1,.31,127.06c.24-4.28,2.53-8.57,4.56-12.35.55-1,1.07-2,1.53-2.93H49.48m.17-.28H6.22C4.12,115.84.33,121.45,0,127A27.33,27.33,0,0,0,3.8,141.7H51.58c2.13-3.65,4.24-8.64,4-14.14C55.3,121.89,52.07,116.27,49.65,111.5Z"/><path class="cls-6" d="M6.43,110.4a2.41,2.41,0,0,1-1.22-.91,2.48,2.48,0,0,1-.53-2,3,3,0,0,1,2.61-2.58H49a3,3,0,0,1,2.73,2.52,2.48,2.48,0,0,1-.55,2,2.68,2.68,0,0,1-1.32,1H6.43Z"/><path class="cls-2" d="M49,105a2.86,2.86,0,0,1,2.59,2.41,2.38,2.38,0,0,1-.52,1.89,2.68,2.68,0,0,1-1.21.94H6.44a2.32,2.32,0,0,1-1.12-.86,2.35,2.35,0,0,1-.5-1.91A2.87,2.87,0,0,1,7.29,105H49m0-.29H7.29a3.16,3.16,0,0,0-2.75,2.71,2.88,2.88,0,0,0,1.88,3.1H49.81a3,3,0,0,0,2-3.17A3.16,3.16,0,0,0,49,104.73Z"/><path class="cls-7" d="M14.74,70.3c-.3,0-2.76-1.41-2.54-3.6a4.4,4.4,0,0,1,3.1-3.76h2.47V53.56h21v9.38h3.44a4.71,4.71,0,0,1,3,4c.22,2.27-2.21,3.38-2.42,3.4h-28Z"/><path class="cls-2" d="M38.63,53.7v9.38H42.2A4.59,4.59,0,0,1,45,66.91c.2,2.13-2.09,3.22-2.27,3.25h-28c-.33-.06-2.64-1.41-2.44-3.45a4.21,4.21,0,0,1,3-3.63h2.61V53.7H38.63m.28-.29H17.63V62.8H15.3a4.49,4.49,0,0,0-3.24,3.89c-.23,2.28,2.32,3.71,2.68,3.75h28c.36,0,2.76-1.27,2.54-3.56a4.8,4.8,0,0,0-3.1-4.08h-3.3Z"/><path class="cls-1" d="M8.58,103.69c4.36-8.83,10.13-21.65,10.61-32H37.35c.49,10.44,6.91,23.86,10.82,32Z"/><path class="cls-2" d="M37.22,71.83C37.75,82.19,44,95.42,48,103.55H8.81c4.33-8.8,10-21.44,10.52-31.72H37.22m.27-.28H19.06c-.44,10.37-6.26,23.28-10.71,32.28h40C44.19,95.09,37.93,81.92,37.49,71.55Z"/><path class="cls-4" d="M1.39,149.46a18.14,18.14,0,0,1,.45-4,7.93,7.93,0,0,1,1.76-2.66l48.22,0a8.57,8.57,0,0,1,1.66,2.72,22.56,22.56,0,0,1,.5,3.94Z"/><path class="cls-2" d="M51.75,143a8.13,8.13,0,0,1,1.6,2.61,21.49,21.49,0,0,1,.48,3.76H1.53A16.82,16.82,0,0,1,2,145.47,7.53,7.53,0,0,1,3.61,143H51.75m.13-.29H3.5a8,8,0,0,0-1.79,2.72,19.12,19.12,0,0,0-.46,4.22H54.13a24.16,24.16,0,0,0-.51-4.12A9.16,9.16,0,0,0,51.88,142.66Z"/><path class="cls-5" d="M3.89,141.56A27.16,27.16,0,0,1,.17,127.05c.23-4.31,2.54-8.61,4.58-12.41.56-1,1.1-2,1.56-3H49.56c.25.5.52,1,.78,1.52,2.27,4.4,4.85,9.39,5.08,14.4.21,4.45-1.11,9.16-3.93,14Z"/><path class="cls-2" d="M49.48,111.78l.74,1.45c2.26,4.38,4.83,9.35,5.07,14.34.2,4.4-1.1,9.05-3.88,13.84H4A27,27,0,0,1,.31,127.06c.24-4.28,2.53-8.57,4.56-12.35.55-1,1.07-2,1.53-2.93H49.48m.17-.28H6.22C4.12,115.84.33,121.45,0,127A27.33,27.33,0,0,0,3.8,141.7H51.58c2.13-3.65,4.24-8.64,4-14.14C55.3,121.89,52.07,116.27,49.65,111.5Z"/><path class="cls-6" d="M6.43,110.4a2.41,2.41,0,0,1-1.22-.91,2.48,2.48,0,0,1-.53-2,3,3,0,0,1,2.61-2.58H49a3,3,0,0,1,2.73,2.52,2.48,2.48,0,0,1-.55,2,2.68,2.68,0,0,1-1.32,1H6.43Z"/><path class="cls-2" d="M49,105a2.86,2.86,0,0,1,2.59,2.41,2.38,2.38,0,0,1-.52,1.89,2.68,2.68,0,0,1-1.21.94H6.44a2.32,2.32,0,0,1-1.12-.86,2.35,2.35,0,0,1-.5-1.91A2.87,2.87,0,0,1,7.29,105H49m0-.29H7.29a3.16,3.16,0,0,0-2.75,2.71,2.88,2.88,0,0,0,1.88,3.1H49.81a3,3,0,0,0,2-3.17A3.16,3.16,0,0,0,49,104.73Z"/><path class="cls-7" d="M14.74,70.3c-.3,0-2.76-1.41-2.54-3.6a4.4,4.4,0,0,1,3.1-3.76h2.47V53.56h21v9.38h3.44a4.71,4.71,0,0,1,3,4c.22,2.27-2.21,3.38-2.42,3.4h-28Z"/><path class="cls-2" d="M38.63,53.7v9.38H42.2A4.59,4.59,0,0,1,45,66.91c.2,2.13-2.09,3.22-2.27,3.25h-28c-.33-.06-2.64-1.41-2.44-3.45a4.21,4.21,0,0,1,3-3.63h2.61V53.7H38.63m.28-.29H17.63V62.8H15.3a4.49,4.49,0,0,0-3.24,3.89c-.23,2.28,2.32,3.71,2.68,3.75h28c.36,0,2.76-1.27,2.54-3.56a4.8,4.8,0,0,0-3.1-4.08h-3.3Z"/></g></g></svg>