<svg xmlns="http://www.w3.org/2000/svg" xmlns:xlink="http://www.w3.org/1999/xlink" viewBox="0 0 79.99 149.6"><defs><style>.cls-1{fill:url(#linear-gradient);}.cls-2{fill:#a6a8ab;}.cls-3{fill:url(#linear-gradient-2);}.cls-4{fill:url(#linear-gradient-3);}.cls-5{fill:url(#linear-gradient-4);}.cls-6{fill:url(#linear-gradient-5);}.cls-7{fill:url(#linear-gradient-6);}</style><linearGradient id="linear-gradient" x1="-382.72" y1="359.28" x2="-381.4" y2="359.28" gradientTransform="matrix(53.47, 0, 0, -53.47, 20469.14, 19225.32)" gradientUnits="userSpaceOnUse"><stop offset="0" stop-color="#cbccce"/><stop offset="0.66" stop-color="#ebecec"/><stop offset="1" stop-color="#fff"/></linearGradient><linearGradient id="linear-gradient-2" x1="-381.91" y1="359.42" x2="-380.58" y2="359.42" gradientTransform="matrix(39.34, 0, 0, -39.34, 15039.28, 14206)" xlink:href="#linear-gradient"/><linearGradient id="linear-gradient-3" x1="-382.93" y1="358.62" x2="-381.61" y2="358.62" gradientTransform="matrix(58.98, 0, 0, -58.98, 22588.1, 21298.14)" xlink:href="#linear-gradient"/><linearGradient id="linear-gradient-4" x1="-382.97" y1="358.71" x2="-381.65" y2="358.71" gradientTransform="matrix(60.1, 0, 0, -60.1, 23018.07, 21679.43)" xlink:href="#linear-gradient"/><linearGradient id="linear-gradient-5" x1="-382.54" y1="358.98" x2="-381.22" y2="358.98" gradientTransform="matrix(49.51, 0, 0, -49.51, 18945.16, 17868.2)" xlink:href="#linear-gradient"/><linearGradient id="linear-gradient-6" x1="-382.02" y1="359.54" x2="-380.69" y2="359.54" gradientTransform="matrix(40.91, 0, 0, -40.91, 15639.86, 14740.51)" xlink:href="#linear-gradient"/></defs><g id="Layer_2" data-name="Layer 2"><g id="Vector_Graphics" data-name="Vector Graphics"><path class="cls-1" d="M17.41,27.77A30.28,30.28,0,0,1,8.49,16.05,50.25,50.25,0,0,1,4.45.16H21.84L20.58,13.27h12.8L32.13.16H47.66L46.39,13.27H59.2L57.94.16H75.32C75.19,1.5,74.25,10,71.29,16a43.91,43.91,0,0,1-9,11.73Z"/><path class="cls-2" d="M75.14.33C75,2.12,74,10.17,71.14,16a44,44,0,0,1-8.9,11.64H17.52A29.93,29.93,0,0,1,8.64,16,50.22,50.22,0,0,1,4.63.33h17L20.43,13.07l0,.37H33.57l0-.37L32.31.33H47.47L46.25,13.07l0,.37H59.38l0-.37L58.12.33h17M75.5,0H57.75L59,13.1H46.57L47.84,0H31.94L33.2,13.1H20.76L22,0H4.28A49.54,49.54,0,0,0,8.34,16.12c3.7,8.2,9.07,11.82,9.07,11.82h45a44,44,0,0,0,9.07-11.82C74.69,9.46,75.5,0,75.5,0Z"/><polygon class="cls-3" points="13.92 91.16 18.92 38.88 61.07 38.88 66.06 91.16 13.92 91.16"/><path class="cls-2" d="M60.92,39.05l5,51.94H14.1l5-51.94H60.92m.3-.33H18.76l-5,52.6H66.25Z"/><path class="cls-4" d="M.84,149.43a41.17,41.17,0,0,1,1.26-5A10.47,10.47,0,0,1,5,140.93L75,141s2.33,2.46,2.87,4.07c.47,1.41,1,3.72,1.12,4.4Z"/><path class="cls-2" d="M74.89,141.13a14.84,14.84,0,0,1,2.86,4c.42,1.28.88,3.32,1.06,4.18H1a39.87,39.87,0,0,1,1.21-4.78A10.07,10.07,0,0,1,5,141.13H74.89m.14-.33H4.87a10.61,10.61,0,0,0-2.93,3.58,45.33,45.33,0,0,0-1.3,5.22H79.22s-.59-2.93-1.16-4.62S75,140.8,75,140.8Z"/><path class="cls-5" d="M5.4,139.41C1.59,133.68-.15,127.79.21,121.9c.31-5,4.06-10.36,7.37-15.13,1.34-1.93,2.61-3.75,3.5-5.35H70.39c.67,1.15,1.41,2.34,2.17,3.58,3.24,5.22,6.92,11.14,7.23,16.9s-1.47,11.75-5.29,17.51Z"/><path class="cls-2" d="M70.3,101.59c.66,1.12,1.37,2.27,2.13,3.49,3.22,5.21,6.88,11.12,7.19,16.83s-1.44,11.63-5.21,17.33H5.49C1.73,133.57,0,127.74.38,121.91c.3-4.92,4-10.3,7.34-15,1.32-1.89,2.56-3.69,3.46-5.27H70.3m.19-.34H11C7.94,106.76.49,114.8.05,121.89S2.22,135,5.31,139.57H74.58c3.09-4.62,5.75-10.69,5.37-17.68C79.56,114.7,74,107.31,70.49,101.25Z"/><path class="cls-6" d="M10,99.86a3.33,3.33,0,0,1-1.85-1.32,2.92,2.92,0,0,1-.61-2.41,4.12,4.12,0,0,1,3.67-3.3h58a4.14,4.14,0,0,1,3.83,3.22,2.91,2.91,0,0,1-.62,2.37,3.73,3.73,0,0,1-2,1.44H10Z"/><path class="cls-2" d="M69.23,93a4,4,0,0,1,3.67,3.09,2.7,2.7,0,0,1-.6,2.23,3.83,3.83,0,0,1-1.87,1.38H10a3.28,3.28,0,0,1-1.73-1.26,2.79,2.79,0,0,1-.58-2.28A3.94,3.94,0,0,1,11.24,93h58m0-.33h-58A4.25,4.25,0,0,0,7.41,96.1C6.92,98.3,9.25,100,10,100h60.4c.78,0,3.28-1.81,2.79-4A4.3,4.3,0,0,0,69.23,92.67Z"/><path class="cls-7" d="M17.09,37.61a7.11,7.11,0,0,1-3.4-2.3A2.62,2.62,0,0,1,13,33.16a4.28,4.28,0,0,1,3.66-3.77H63.34a4.26,4.26,0,0,1,3.83,3.67,2.55,2.55,0,0,1-.63,2.1,7,7,0,0,1-3.42,2.28H39.45c-6.12,0-14.76.09-19.4.14l-2.92,0Z"/><path class="cls-2" d="M63.34,29.56A4.1,4.1,0,0,1,67,33.1a2.45,2.45,0,0,1-.59,2,6.92,6.92,0,0,1-3.3,2.21H39.45c-6.12,0-14.76.1-19.4.14l-2.95,0a7,7,0,0,1-3.28-2.23,2.47,2.47,0,0,1-.62-2,4.12,4.12,0,0,1,3.5-3.63H63.34m0-.33H16.7a4.46,4.46,0,0,0-3.83,3.9c-.49,2.5,3.43,4.6,4.21,4.64h.05c1,0,14.06-.16,22.32-.17H63.13c.77,0,4.69-2.06,4.2-4.57A4.42,4.42,0,0,0,63.34,29.23Z"/><polygon class="cls-3" points="13.92 91.16 18.92 38.88 61.07 38.88 66.06 91.16 13.92 91.16"/><path class="cls-2" d="M60.92,39.05l5,51.94H14.1l5-51.94H60.92m.3-.33H18.76l-5,52.6H66.25Z"/><path class="cls-4" d="M.84,149.43a41.17,41.17,0,0,1,1.26-5A10.47,10.47,0,0,1,5,140.93L75,141s2.33,2.46,2.87,4.07c.47,1.41,1,3.72,1.12,4.4Z"/><path class="cls-2" d="M74.89,141.13a14.84,14.84,0,0,1,2.86,4c.42,1.28.88,3.32,1.06,4.18H1a39.87,39.87,0,0,1,1.21-4.78A10.07,10.07,0,0,1,5,141.13H74.89m.14-.33H4.87a10.61,10.61,0,0,0-2.93,3.58,45.33,45.33,0,0,0-1.3,5.22H79.22s-.59-2.93-1.16-4.62S75,140.8,75,140.8Z"/><path class="cls-5" d="M5.4,139.41C1.59,133.68-.15,127.79.21,121.9c.31-5,4.06-10.36,7.37-15.13,1.34-1.93,2.61-3.75,3.5-5.35H70.39c.67,1.15,1.41,2.34,2.17,3.58,3.24,5.22,6.92,11.14,7.23,16.9s-1.47,11.75-5.29,17.51Z"/><path class="cls-2" d="M70.3,101.59c.66,1.12,1.37,2.27,2.13,3.49,3.22,5.21,6.88,11.12,7.19,16.83s-1.44,11.63-5.21,17.33H5.49C1.73,133.57,0,127.74.38,121.91c.3-4.92,4-10.3,7.34-15,1.32-1.89,2.56-3.69,3.46-5.27H70.3m.19-.34H11C7.94,106.76.49,114.8.05,121.89S2.22,135,5.31,139.57H74.58c3.09-4.62,5.75-10.69,5.37-17.68C79.56,114.7,74,107.31,70.49,101.25Z"/><path class="cls-6" d="M10,99.86a3.33,3.33,0,0,1-1.85-1.32,2.92,2.92,0,0,1-.61-2.41,4.12,4.12,0,0,1,3.67-3.3h58a4.14,4.14,0,0,1,3.83,3.22,2.91,2.91,0,0,1-.62,2.37,3.73,3.73,0,0,1-2,1.44H10Z"/><path class="cls-2" d="M69.23,93a4,4,0,0,1,3.67,3.09,2.7,2.7,0,0,1-.6,2.23,3.83,3.83,0,0,1-1.87,1.38H10a3.28,3.28,0,0,1-1.73-1.26,2.79,2.79,0,0,1-.58-2.28A3.94,3.94,0,0,1,11.24,93h58m0-.33h-58A4.25,4.25,0,0,0,7.41,96.1C6.92,98.3,9.25,100,10,100h60.4c.78,0,3.28-1.81,2.79-4A4.3,4.3,0,0,0,69.23,92.67Z"/><path class="cls-7" d="M17.09,37.61a7.11,7.11,0,0,1-3.4-2.3A2.62,2.62,0,0,1,13,33.16a4.28,4.28,0,0,1,3.66-3.77H63.34a4.26,4.26,0,0,1,3.83,3.67,2.55,2.55,0,0,1-.63,2.1,7,7,0,0,1-3.42,2.28H39.45c-6.12,0-14.76.09-19.4.14l-2.92,0Z"/><path class="cls-2" d="M63.34,29.56A4.1,4.1,0,0,1,67,33.1a2.45,2.45,0,0,1-.59,2,6.92,6.92,0,0,1-3.3,2.21H39.45c-6.12,0-14.76.1-19.4.14l-2.95,0a7,7,0,0,1-3.28-2.23,2.47,2.47,0,0,1-.62-2,4.12,4.12,0,0,1,3.5-3.63H63.34m0-.33H16.7a4.46,4.46,0,0,0-3.83,3.9c-.49,2.5,3.43,4.6,4.21,4.64h.05c1,0,14.06-.16,22.32-.17H63.13c.77,0,4.69-2.06,4.2-4.57A4.42,4.42,0,0,0,63.34,29.23Z"/></g></g></svg>