<svg xmlns="http://www.w3.org/2000/svg" xmlns:xlink="http://www.w3.org/1999/xlink" viewBox="0 0 68.71 149.6"><defs><style>.cls-1{fill:url(#linear-gradient);}.cls-2{fill:#a6a8ab;}.cls-3{fill:url(#linear-gradient-2);}.cls-4{fill:url(#linear-gradient-3);}.cls-5{fill:url(#linear-gradient-4);}</style><linearGradient id="linear-gradient" x1="4.19" y1="358.78" x2="5.63" y2="358.78" gradientTransform="matrix(46.26, 0, 0, -46.26, -192.31, 16742.62)" gradientUnits="userSpaceOnUse"><stop offset="0" stop-color="#cbccce"/><stop offset="0.66" stop-color="#ebecec"/><stop offset="1" stop-color="#fff"/></linearGradient><linearGradient id="linear-gradient-2" x1="4.18" y1="358.9" x2="5.63" y2="358.9" gradientTransform="matrix(47.41, 0, 0, -47.41, -198.48, 17139.63)" xlink:href="#linear-gradient"/><linearGradient id="linear-gradient-3" x1="4.16" y1="359.2" x2="5.61" y2="359.2" gradientTransform="matrix(40.25, 0, 0, -40.25, -161.8, 14562.66)" xlink:href="#linear-gradient"/><linearGradient id="linear-gradient-4" x1="4.14" y1="359.81" x2="5.58" y2="359.81" gradientTransform="matrix(35.98, 0, 0, -35.98, -140.8, 12995.5)" xlink:href="#linear-gradient"/></defs><g id="Layer_2" data-name="Layer 2"><g id="Vector_Graphics" data-name="Vector Graphics"><path class="cls-1" d="M1,149.42a14.44,14.44,0,0,1,.62-4.24,8.91,8.91,0,0,1,2.42-2.82l60.72,0A11.08,11.08,0,0,1,67,145.28a18.67,18.67,0,0,1,.69,4.14Z"/><path class="cls-2" d="M64.64,142.58a9.23,9.23,0,0,1,2.21,2.76,18.07,18.07,0,0,1,.66,3.9H1.19a14.21,14.21,0,0,1,.6-4,8.33,8.33,0,0,1,2.28-2.67H64.64m.13-.36H3.94a8.9,8.9,0,0,0-2.48,2.89,15.47,15.47,0,0,0-.63,4.49H67.89a20.23,20.23,0,0,0-.71-4.39A9.85,9.85,0,0,0,64.77,142.22Z"/><path class="cls-3" d="M4.46,141A23.38,23.38,0,0,1,.24,125.63c.37-5.2,3.79-10.51,6.55-14.78l1-1.6H61.58c2.42,3.66,6.48,10.74,6.9,17.53A20.57,20.57,0,0,1,64.26,141Z"/><path class="cls-2" d="M61.48,109.42c2.42,3.68,6.41,10.68,6.82,17.37a20.43,20.43,0,0,1-4.13,14H4.55A23.24,23.24,0,0,1,.42,125.64C.79,120.49,4.2,115.2,6.94,111c.33-.52.66-1,1-1.53H61.48m.2-.35h-54C4.8,113.68.48,119.66.06,125.61a23.52,23.52,0,0,0,4.31,15.58h60a20.81,20.81,0,0,0,4.31-14.42C68.29,120.74,65,114.14,61.68,109.07Z"/><path class="cls-4" d="M8,107.86a2.65,2.65,0,0,1-1.53-1.09,2.36,2.36,0,0,1-.46-2A3.44,3.44,0,0,1,9.2,102H60.71a3.43,3.43,0,0,1,3.18,2.68,2.39,2.39,0,0,1-.45,2,2.64,2.64,0,0,1-1.54,1.09H8Z"/><path class="cls-2" d="M60.71,102.23a3.23,3.23,0,0,1,3,2.54,2.18,2.18,0,0,1-.43,1.89,2.46,2.46,0,0,1-1.39,1H8a2.5,2.5,0,0,1-1.4-1,2.19,2.19,0,0,1-.42-1.9,3.23,3.23,0,0,1,3-2.53H60.71m0-.37H9.2a3.62,3.62,0,0,0-3.36,2.82A2.94,2.94,0,0,0,8,108H61.91a2.94,2.94,0,0,0,2.16-3.36A3.63,3.63,0,0,0,60.71,101.86Z"/><path class="cls-5" d="M10.74,100.56c5.4-12.88,11.6-33.88,13.57-46l0-.21H13.49c-.34,0-5.43-2.67-5.1-7.11a8.61,8.61,0,0,1,5.92-7.47H25.57l0-.45-.11-.05A20.68,20.68,0,0,1,14,20.7a20.29,20.29,0,1,1,40.58,0,20.67,20.67,0,0,1-11.5,18.52l-.12.05,0,.45h11.1c.43,0,5.76,2,6.14,7.46.33,4.43-5,7.07-5.34,7.13H44.21l0,.21c2,12.52,9.5,34.77,15.42,46Z"/><path class="cls-2" d="M34.28.36A20.25,20.25,0,0,1,54.39,20.7,20.49,20.49,0,0,1,43,39.06l-.23.1,0,.25v.16l0,.33H54.08c.53,0,5.6,2,6,7.3.31,4.22-4.76,6.84-5.15,6.92H44l.07.42c2,12.44,9.39,34.47,15.3,45.83H11c5.38-12.91,11.52-33.74,13.48-45.83l.07-.42h-11c-.41-.09-5.29-2.7-5-6.93a8.47,8.47,0,0,1,5.74-7.3H25.74l0-.33v-.16l0-.25-.23-.1A20.51,20.51,0,0,1,14.17,20.7,20.25,20.25,0,0,1,34.28.36m0-.36a20.75,20.75,0,0,0-8.86,39.38l0,.16H14.31a8.75,8.75,0,0,0-6.1,7.63c-.33,4.47,4.74,7.24,5.28,7.31H24.14C22.11,67,15.83,88,10.47,100.74H60C54.08,89.67,46.46,67,44.42,54.49H54.91c.53-.07,5.83-2.84,5.5-7.31-.39-5.59-5.82-7.63-6.32-7.63H43.16l0-.16A20.75,20.75,0,0,0,34.28,0Z"/><path class="cls-1" d="M1,149.42a14.44,14.44,0,0,1,.62-4.24,8.91,8.91,0,0,1,2.42-2.82l60.72,0A11.08,11.08,0,0,1,67,145.28a18.67,18.67,0,0,1,.69,4.14Z"/><path class="cls-2" d="M64.64,142.58a9.23,9.23,0,0,1,2.21,2.76,18.07,18.07,0,0,1,.66,3.9H1.19a14.21,14.21,0,0,1,.6-4,8.33,8.33,0,0,1,2.28-2.67H64.64m.13-.36H3.94a8.9,8.9,0,0,0-2.48,2.89,15.47,15.47,0,0,0-.63,4.49H67.89a20.23,20.23,0,0,0-.71-4.39A9.85,9.85,0,0,0,64.77,142.22Z"/><path class="cls-3" d="M4.46,141A23.38,23.38,0,0,1,.24,125.63c.37-5.2,3.79-10.51,6.55-14.78l1-1.6H61.58c2.42,3.66,6.48,10.74,6.9,17.53A20.57,20.57,0,0,1,64.26,141Z"/><path class="cls-2" d="M61.48,109.42c2.42,3.68,6.41,10.68,6.82,17.37a20.43,20.43,0,0,1-4.13,14H4.55A23.24,23.24,0,0,1,.42,125.64C.79,120.49,4.2,115.2,6.94,111c.33-.52.66-1,1-1.53H61.48m.2-.35h-54C4.8,113.68.48,119.66.06,125.61a23.52,23.52,0,0,0,4.31,15.58h60a20.81,20.81,0,0,0,4.31-14.42C68.29,120.74,65,114.14,61.68,109.07Z"/><path class="cls-4" d="M8,107.86a2.65,2.65,0,0,1-1.53-1.09,2.36,2.36,0,0,1-.46-2A3.44,3.44,0,0,1,9.2,102H60.71a3.43,3.43,0,0,1,3.18,2.68,2.39,2.39,0,0,1-.45,2,2.64,2.64,0,0,1-1.54,1.09H8Z"/><path class="cls-2" d="M60.71,102.23a3.23,3.23,0,0,1,3,2.54,2.18,2.18,0,0,1-.43,1.89,2.46,2.46,0,0,1-1.39,1H8a2.5,2.5,0,0,1-1.4-1,2.19,2.19,0,0,1-.42-1.9,3.23,3.23,0,0,1,3-2.53H60.71m0-.37H9.2a3.62,3.62,0,0,0-3.36,2.82A2.94,2.94,0,0,0,8,108H61.91a2.94,2.94,0,0,0,2.16-3.36A3.63,3.63,0,0,0,60.71,101.86Z"/><path class="cls-5" d="M10.74,100.56c5.4-12.88,11.6-33.88,13.57-46l0-.21H13.49c-.34,0-5.43-2.67-5.1-7.11a8.61,8.61,0,0,1,5.92-7.47H25.57l0-.45-.11-.05A20.68,20.68,0,0,1,14,20.7a20.29,20.29,0,1,1,40.58,0,20.67,20.67,0,0,1-11.5,18.52l-.12.05,0,.45h11.1c.43,0,5.76,2,6.14,7.46.33,4.43-5,7.07-5.34,7.13H44.21l0,.21c2,12.52,9.5,34.77,15.42,46Z"/><path class="cls-2" d="M34.28.36A20.25,20.25,0,0,1,54.39,20.7,20.49,20.49,0,0,1,43,39.06l-.23.1,0,.25v.16l0,.33H54.08c.53,0,5.6,2,6,7.3.31,4.22-4.76,6.84-5.15,6.92H44l.07.42c2,12.44,9.39,34.47,15.3,45.83H11c5.38-12.91,11.52-33.74,13.48-45.83l.07-.42h-11c-.41-.09-5.29-2.7-5-6.93a8.47,8.47,0,0,1,5.74-7.3H25.74l0-.33v-.16l0-.25-.23-.1A20.51,20.51,0,0,1,14.17,20.7,20.25,20.25,0,0,1,34.28.36m0-.36a20.75,20.75,0,0,0-8.86,39.38l0,.16H14.31a8.75,8.75,0,0,0-6.1,7.63c-.33,4.47,4.74,7.24,5.28,7.31H24.14C22.11,67,15.83,88,10.47,100.74H60C54.08,89.67,46.46,67,44.42,54.49H54.91c.53-.07,5.83-2.84,5.5-7.31-.39-5.59-5.82-7.63-6.32-7.63H43.16l0-.16A20.75,20.75,0,0,0,34.28,0Z"/></g></g></svg>